# 3ds Max Wavefront OBJ Exporter v0.99 - (c)2007 guruware
# File Created: 10.05.2024 14:44:00

mtllib Locales1er.mtl

#
# object Restaurante_Esquina
#

v  98.5301 30.7136 -60.4664
v  98.5663 30.7136 -60.4664
v  98.5664 30.6856 -60.4664
v  98.5663 0.5163 -60.4664
v  98.5301 0.5163 -60.4664
v  98.5301 0.5163 -44.4080
v  98.5301 15.1407 -44.4080
v  98.5301 30.7136 -44.4080
v  119.6596 30.7136 -27.3082
v  137.5401 30.7136 -27.3082
v  125.2908 30.7136 -37.7296
v  118.0532 30.7136 -43.8873
v  108.8406 30.7136 -36.0639
v  119.6596 0.5163 -27.3082
v  137.5401 0.5163 -27.3082
v  137.5401 30.6526 -27.3082
v  137.5401 30.6856 -27.3082
v  119.6596 16.8573 -27.3082
v  108.8406 0.5163 -36.0639
v  137.5199 0.5163 -27.3253
v  118.0532 0.5163 -43.8873
v  111.2786 0.5163 -49.6510
# 22 vertices

vn 0.0000 0.0000 -1.0000
vn -1.0000 0.0000 -0.0000
vn 0.0000 1.0000 -0.0000
vn 0.0000 0.0000 1.0000
vn -0.6291 0.0000 0.7773
vn -0.6291 -0.0000 0.7773
vn 0.0000 -1.0000 -0.0000
vn 0.6480 -0.0000 -0.7616
vn 0.6480 0.0001 -0.7616
vn 0.6480 0.0000 -0.7616
# 10 vertex normals

vt 1.0418 1.0134 0.0000
vt 1.0401 1.0134 0.0000
vt 1.0401 1.0125 0.0000
vt 1.0401 -0.0500 0.0000
vt 1.0418 -0.0500 0.0000
vt -0.8555 -0.0500 0.0000
vt 0.0836 -0.0500 0.0000
vt 0.0836 0.4650 0.0000
vt 0.0836 1.0134 0.0000
vt -0.8555 1.0134 0.0000
vt 0.9582 -0.0836 0.0000
vt 1.8044 -0.0836 0.0000
vt 1.2247 0.5258 0.0000
vt 0.8822 0.8859 0.0000
vt -0.0418 1.8555 0.0000
vt -0.0418 0.9164 0.0000
vt 0.4462 0.4284 0.0000
vt -0.0401 1.8555 0.0000
vt 0.9582 -0.0500 0.0000
vt 1.8044 -0.0500 0.0000
vt 1.8044 1.0113 0.0000
vt 1.8044 1.0125 0.0000
vt 1.8044 1.0134 0.0000
vt 0.9582 1.0134 0.0000
vt 0.9582 0.5255 0.0000
vt -0.0418 0.4650 0.0000
vt -0.0418 -0.0500 0.0000
vt 0.4462 -0.0500 0.0000
vt -0.0418 1.0134 0.0000
vt 0.4462 1.0134 0.0000
vt -0.8044 -0.0836 0.0000
vt 0.0418 -0.0836 0.0000
vt 0.5538 0.4284 0.0000
vt -0.8035 -0.0826 0.0000
vt 0.1178 0.8859 0.0000
vt 1.0418 0.9164 0.0000
vt 0.4384 1.2230 0.0000
vt 1.0418 1.8555 0.0000
vt 1.0401 1.8555 0.0000
vt 0.4384 -0.0500 0.0000
vt 0.1178 1.0134 0.0000
vt -0.8044 1.0113 0.0000
vt -0.8044 -0.0500 0.0000
vt -0.8035 -0.0500 0.0000
vt -0.8044 1.0125 0.0000
vt -0.8044 1.0134 0.0000
vt -0.2247 1.0134 0.0000
vt 0.1178 -0.0500 0.0000
# 48 texture coords

o Restaurante_Esquina
g Restaurante_Esquina
usemtl Material__48
s off
f 1/1/1 2/2/1 3/3/1 
f 1/1/1 3/3/1 4/4/1 
f 1/1/1 4/4/1 5/5/1 
usemtl 21___Default
f 5/6/2 6/7/2 7/8/2 
f 5/6/2 7/8/2 8/9/2 
f 5/6/2 8/9/2 1/10/2 
usemtl Material_013
f 9/11/3 10/12/3 11/13/3 
f 9/11/3 11/13/3 12/14/3 
f 1/15/3 8/16/3 13/17/3 
f 2/18/3 1/15/3 13/17/3 
f 12/14/3 2/18/3 13/17/3 
f 9/11/3 12/14/3 13/17/3 
usemtl 21___Default
f 14/19/4 15/20/4 16/21/4 
f 14/19/4 16/21/4 17/22/4 
f 10/23/4 9/24/4 18/25/4 
f 17/22/4 10/23/4 18/25/4 
f 14/19/4 17/22/4 18/25/4 
usemtl 03___Default
f 7/26/5 6/27/5 19/28/5 
f 8/29/6 7/26/6 19/28/6 
f 13/30/5 8/29/5 19/28/5 
f 19/28/5 14/19/5 18/25/5 
f 13/30/5 19/28/5 18/25/5 
f 13/30/5 18/25/5 9/24/5 
usemtl Material_013
f 15/31/7 14/32/7 19/33/7 
f 20/34/7 15/31/7 19/33/7 
f 21/35/7 20/34/7 19/33/7 
f 21/35/7 19/33/7 6/36/7 
f 22/37/7 21/35/7 6/36/7 
f 22/37/7 6/36/7 5/38/7 
f 22/37/7 5/38/7 4/39/7 
usemtl 21___Default
f 22/40/8 4/4/8 3/3/8 
f 3/3/9 2/2/9 12/41/9 
f 22/40/10 3/3/10 12/41/10 
f 16/42/10 15/43/10 20/44/10 
f 17/45/10 16/42/10 20/44/10 
f 10/46/10 17/45/10 20/44/10 
f 11/47/10 10/46/10 20/44/10 
f 12/41/10 11/47/10 20/44/10 
f 12/41/10 20/44/10 21/48/10 
f 22/40/10 12/41/10 21/48/10 
# 40 faces

#
# object Sfera
#

v  121.1334 0.6083 3.2983
v  121.1334 0.6083 -20.6852
v  138.0085 0.6083 -20.6852
v  138.0085 0.6083 3.2983
v  121.1334 32.3853 3.2983
v  138.0085 32.3853 3.2983
v  138.0085 32.3853 -20.6852
v  121.1334 32.3853 -20.6852
# 8 vertices

vn 0.0000 -1.0000 -0.0000
vn 0.0000 1.0000 -0.0000
vn 0.0000 0.0000 1.0000
vn 1.0000 0.0000 -0.0000
vn 0.0000 0.0000 -1.0000
vn -1.0000 0.0000 -0.0000
# 6 vertex normals

vt 1.0000 0.0000 0.0000
vt 1.0000 1.0000 0.0000
vt 0.0000 1.0000 0.0000
vt 0.0000 0.0000 0.0000
# 4 texture coords

o Sfera
g Sfera
usemtl Material_013
s off
f 23/49/11 24/50/11 25/51/11 
f 25/51/11 26/52/11 23/49/11 
f 27/52/12 28/49/12 29/50/12 
f 29/50/12 30/51/12 27/52/12 
usemtl Cylinder_002_mso
f 23/52/13 26/49/13 28/50/13 
f 28/50/13 27/51/13 23/52/13 
f 26/52/14 25/49/14 29/50/14 
f 29/50/14 28/51/14 26/52/14 
f 25/52/15 24/49/15 30/50/15 
f 30/50/15 29/51/15 25/52/15 
usemtl Material_007
f 24/52/16 23/49/16 27/50/16 
f 27/50/16 30/51/16 24/52/16 
# 12 faces

#
# object Radioshack
#

v  121.1877 -0.3331 80.7603
v  121.1877 -0.3331 56.7768
v  138.0627 -0.3331 56.7768
v  138.0627 -0.3331 80.7603
v  121.1877 31.3628 80.7603
v  138.0627 31.3628 80.7603
v  138.0627 31.3628 56.7768
v  121.1877 31.3628 56.7768
# 8 vertices

vn 0.0000 -1.0000 -0.0000
vn 0.0000 1.0000 -0.0000
vn 0.0000 0.0000 1.0000
vn 1.0000 0.0000 -0.0000
vn 0.0000 0.0000 -1.0000
vn -1.0000 0.0000 -0.0000
# 6 vertex normals

vt 1.0000 0.0000 0.0000
vt 1.0000 1.0000 0.0000
vt 0.0000 1.0000 0.0000
vt 0.0000 0.0000 0.0000
# 4 texture coords

o Radioshack
g Radioshack
usemtl Material_013
s off
f 31/53/17 32/54/17 33/55/17 
f 33/55/17 34/56/17 31/53/17 
f 35/56/18 36/53/18 37/54/18 
f 37/54/18 38/55/18 35/56/18 
usemtl 21___Default
f 31/56/19 34/53/19 36/54/19 
f 36/54/19 35/55/19 31/56/19 
f 34/56/20 33/53/20 37/54/20 
f 37/54/20 36/55/20 34/56/20 
f 33/56/21 32/53/21 38/54/21 
f 38/54/21 37/55/21 33/56/21 
usemtl 07___Default
f 32/56/22 31/53/22 35/54/22 
f 35/54/22 38/55/22 32/56/22 
# 12 faces

#
# object Restaurante_2
#

v  -48.3370 -0.3331 -45.8878
v  -99.0785 -0.3331 -45.8878
v  -99.0785 -0.3331 -60.2941
v  -48.3370 -0.3331 -60.2941
v  -48.3370 31.0943 -45.8878
v  -48.3370 31.0943 -60.2941
v  -99.0785 31.0943 -60.2941
v  -99.0785 31.0943 -45.8878
# 8 vertices

vn 0.0000 -1.0000 -0.0000
vn 0.0000 1.0000 -0.0000
vn 1.0000 0.0000 -0.0000
vn 0.0000 0.0000 -1.0000
vn -1.0000 0.0000 -0.0000
vn -0.0000 0.0000 1.0000
# 6 vertex normals

vt 1.0000 0.0000 0.0000
vt 1.0000 1.0000 0.0000
vt 0.0000 1.0000 0.0000
vt 0.0000 0.0000 0.0000
# 4 texture coords

o Restaurante_2
g Restaurante_2
usemtl Material_013
s off
f 39/57/23 40/58/23 41/59/23 
f 41/59/23 42/60/23 39/57/23 
f 43/60/24 44/57/24 45/58/24 
f 45/58/24 46/59/24 43/60/24 
usemtl 21___Default
f 39/60/25 42/57/25 44/58/25 
f 44/58/25 43/59/25 39/60/25 
f 42/60/26 41/57/26 45/58/26 
f 45/58/26 44/59/26 42/60/26 
f 41/60/27 40/57/27 46/58/27 
f 46/58/27 45/59/27 41/60/27 
usemtl 19___Default
f 40/60/28 39/57/28 43/58/28 
f 43/58/28 46/59/28 40/60/28 
# 12 faces

#
# object Zara
#

v  16.7395 0.0000 80.7603
v  16.7395 0.0000 56.7768
v  33.6146 0.0000 56.7768
v  33.6146 0.0000 80.7603
v  16.7395 30.4892 80.7603
v  33.6146 30.4892 80.7603
v  33.6146 30.4892 56.7768
v  16.7395 30.4892 56.7768
# 8 vertices

vn 0.0000 -1.0000 -0.0000
vn 0.0000 1.0000 -0.0000
vn 0.0000 0.0000 1.0000
vn 1.0000 0.0000 -0.0000
vn 0.0000 0.0000 -1.0000
vn -1.0000 0.0000 -0.0000
# 6 vertex normals

vt 1.0000 0.0000 0.0000
vt 1.0000 1.0000 0.0000
vt 0.0000 1.0000 0.0000
vt 0.0000 0.0000 0.0000
# 4 texture coords

o Zara
g Zara
usemtl Material__121
s off
f 47/61/29 48/62/29 49/63/29 
f 49/63/29 50/64/29 47/61/29 
usemtl Material_013
f 51/64/30 52/61/30 53/62/30 
f 53/62/30 54/63/30 51/64/30 
usemtl 21___Default
f 47/64/31 50/61/31 52/62/31 
f 52/62/31 51/63/31 47/64/31 
usemtl 08___Default
f 50/64/32 49/61/32 53/62/32 
f 53/62/32 52/63/32 50/64/32 
usemtl 21___Default
f 49/64/33 48/61/33 54/62/33 
f 54/62/33 53/63/33 49/64/33 
usemtl 08___Default
f 48/64/34 47/61/34 51/62/34 
f 51/62/34 54/63/34 48/64/34 
# 12 faces

#
# object Bershaka
#

v  16.8159 0.5334 56.2652
v  16.8159 0.5334 32.2817
v  33.6910 0.5334 32.2817
v  33.6910 0.5334 56.2652
v  16.8159 30.6176 56.2652
v  33.6910 30.6176 56.2652
v  33.6910 30.6176 32.2817
v  16.8159 30.6176 32.2817
# 8 vertices

vn 0.0000 -1.0000 -0.0000
vn 0.0000 1.0000 -0.0000
vn 0.0000 0.0000 1.0000
vn 1.0000 0.0000 -0.0000
vn 0.0000 0.0000 -1.0000
vn -1.0000 0.0000 -0.0000
# 6 vertex normals

vt 1.0000 0.0000 0.0000
vt 1.0000 1.0000 0.0000
vt 0.0000 1.0000 0.0000
vt 0.0000 0.0000 0.0000
# 4 texture coords

o Bershaka
g Bershaka
usemtl Material__132
s off
f 55/65/35 56/66/35 57/67/35 
f 57/67/35 58/68/35 55/65/35 
usemtl Material_013
f 59/68/36 60/65/36 61/66/36 
f 61/66/36 62/67/36 59/68/36 
usemtl 21___Default
f 55/68/37 58/65/37 60/66/37 
f 60/66/37 59/67/37 55/68/37 
usemtl 09___Default
f 58/68/38 57/65/38 61/66/38 
f 61/66/38 60/67/38 58/68/38 
usemtl 21___Default
f 57/68/39 56/65/39 62/66/39 
f 62/66/39 61/67/39 57/68/39 
usemtl 09___Default
f 56/68/40 55/65/40 59/66/40 
f 59/66/40 62/67/40 56/68/40 
# 12 faces

#
# object Forever_21
#

v  -34.2611 3.7984 80.7603
v  -34.2611 3.7984 56.7768
v  -17.3860 3.7984 56.7768
v  -17.3860 3.7984 80.7603
v  -34.2611 30.8848 80.7603
v  -17.3860 30.8848 80.7603
v  -17.3860 30.8848 56.7768
v  -34.2611 30.8848 56.7768
# 8 vertices

vn 0.0000 -1.0000 -0.0000
vn 0.0000 1.0000 -0.0000
vn 0.0000 0.0000 1.0000
vn 1.0000 0.0000 -0.0000
vn 0.0000 0.0000 -1.0000
vn -1.0000 0.0000 -0.0000
# 6 vertex normals

vt 1.0000 0.0000 0.0000
vt 1.0000 1.0000 0.0000
vt 0.0000 1.0000 0.0000
vt 0.0000 0.0000 0.0000
# 4 texture coords

o Forever_21
g Forever_21
usemtl Material__143
s off
f 63/69/41 64/70/41 65/71/41 
f 65/71/41 66/72/41 63/69/41 
usemtl Material_013
f 67/72/42 68/69/42 69/70/42 
f 69/70/42 70/71/42 67/72/42 
usemtl 21___Default
f 63/72/43 66/69/43 68/70/43 
f 68/70/43 67/71/43 63/72/43 
usemtl Material_012
f 66/72/44 65/69/44 69/70/44 
f 69/70/44 68/71/44 66/72/44 
usemtl 21___Default
f 65/72/45 64/69/45 70/70/45 
f 70/70/45 69/71/45 65/72/45 
usemtl Material_012
f 64/72/46 63/69/46 67/70/46 
f 67/70/46 70/71/46 64/72/46 
# 12 faces

#
# object LEfties
#

v  -34.2810 3.8434 56.2634
v  -34.2810 3.8434 32.2799
v  -17.4059 3.8434 32.2799
v  -17.4059 3.8434 56.2634
v  -34.2810 30.9406 56.2634
v  -17.4059 30.9406 56.2634
v  -17.4059 30.9406 32.2799
v  -34.2810 30.9406 32.2799
# 8 vertices

vn 0.0000 -1.0000 -0.0000
vn 0.0000 1.0000 -0.0000
vn 0.0000 0.0000 1.0000
vn 1.0000 0.0000 -0.0000
vn 0.0000 0.0000 -1.0000
vn -1.0000 0.0000 -0.0000
# 6 vertex normals

vt 1.0000 0.0000 0.0000
vt 1.0000 1.0000 0.0000
vt 0.0000 1.0000 0.0000
vt 0.0000 0.0000 0.0000
# 4 texture coords

o LEfties
g LEfties
usemtl Material__154
s off
f 71/73/47 72/74/47 73/75/47 
f 73/75/47 74/76/47 71/73/47 
usemtl Material_013
f 75/76/48 76/73/48 77/74/48 
f 77/74/48 78/75/48 75/76/48 
usemtl 21___Default
f 71/76/49 74/73/49 76/74/49 
f 76/74/49 75/75/49 71/76/49 
usemtl 14___Default
f 74/76/50 73/73/50 77/74/50 
f 77/74/50 76/75/50 74/76/50 
usemtl 21___Default
f 73/76/51 72/73/51 78/74/51 
f 78/74/51 77/75/51 73/76/51 
usemtl 14___Default
f 72/76/52 71/73/52 75/74/52 
f 75/74/52 78/75/52 72/76/52 
# 12 faces

#
# object liverpool
#

v  -138.1978 30.0824 -28.0489
v  -138.1916 30.0824 -28.0846
v  -138.1916 30.0551 -28.0846
v  -138.1916 0.7342 -28.0846
v  -138.1978 0.7342 -28.0489
v  -122.3807 0.7342 -25.2761
v  -122.3807 14.9473 -25.2761
v  -122.3807 30.0824 -25.2761
v  -101.8892 30.0824 -43.1356
v  -101.1390 30.0824 -60.3612
v  -111.1819 30.0824 -50.4816
v  -118.4967 30.0824 -44.4160
v  -112.3816 30.0824 -33.9909
v  -101.8892 0.7342 -43.1356
v  -101.1390 0.7342 -60.3612
v  -101.1390 30.0230 -60.3612
v  -101.1390 30.0551 -60.3612
v  -101.8892 16.6157 -43.1356
v  -112.3816 0.7342 -33.9909
v  -101.1595 0.7342 -60.3442
v  -118.4967 0.7342 -44.4160
v  -125.3437 0.7342 -38.7383
# 22 vertices

vn -0.9850 0.0000 -0.1726
vn -0.1727 -0.0000 0.9850
vn -0.1727 0.0000 0.9850
vn 0.0000 1.0000 -0.0000
vn 0.9991 0.0000 0.0435
vn 0.6570 0.0000 0.7539
vn 0.6570 -0.0000 0.7539
vn 0.0000 -1.0000 0.0000
vn -0.0000 -1.0000 0.0000
vn 0.0000 -1.0000 -0.0000
vn -0.6383 0.0000 -0.7698
vn -0.6383 -0.0000 -0.7698
vn -0.7013 0.0001 -0.7129
vn -0.6379 0.0345 -0.7693
vn -0.6766 0.0000 -0.7364
# 15 vertex normals

vt 1.0000 1.0000 0.0000
vt 0.9991 1.0000 0.0000
vt 0.9991 0.9991 0.0000
vt 0.9991 0.0000 0.0000
vt 1.0000 0.0000 0.0000
vt 0.0000 0.0000 0.0000
vt 0.4843 0.0000 0.0000
vt 0.4843 0.4843 0.0000
vt 0.4843 1.0000 0.0000
vt 0.0000 1.0000 0.0000
vt 0.5411 0.0000 0.0000
vt 0.6854 0.3143 0.0000
vt 0.5000 0.5000 0.0000
vt 0.0000 0.5157 0.0000
vt 0.2641 0.2641 0.0000
vt 0.0009 1.0000 0.0000
vt 0.9991 0.9980 0.0000
vt 0.5411 1.0000 0.0000
vt 0.5411 0.5411 0.0000
vt 0.0000 0.4843 0.0000
vt 0.0000 -0.0000 0.0000
vt 0.4880 -0.0000 0.0000
vt 0.4880 1.0000 0.0000
vt 1.0000 -0.0000 0.0000
vt 1.0000 0.5411 0.0000
vt 0.0009 0.0000 0.0000
vt 0.4589 0.0000 0.0000
vt 0.7359 0.2641 0.0000
vt 0.0014 0.0005 0.0000
vt 1.0000 0.5157 0.0000
vt 0.6735 0.6738 0.0000
vt 0.2278 0.1282 0.0000
vt 0.6553 0.1282 0.0000
vt 0.6553 0.6403 0.0000
vt 0.6553 0.6408 0.0000
vt 0.0000 0.6408 0.0000
vt -0.6553 0.6398 0.0000
vt -0.6553 0.1282 0.0000
vt -0.6546 0.1282 0.0000
vt -0.6553 0.6403 0.0000
vt -0.6553 0.6408 0.0000
vt -0.2434 0.6408 0.0000
vt 0.0000 0.1282 0.0000
# 43 texture coords

o liverpool
g liverpool
usemtl Material__48
s off
f 79/77/53 80/78/53 81/79/53 
f 79/77/53 81/79/53 82/80/53 
f 79/77/53 82/80/53 83/81/53 
usemtl 21___Default
f 83/82/54 84/83/54 85/84/55 
f 83/82/54 85/84/55 86/85/55 
f 83/82/54 86/85/55 79/86/55 
usemtl Material_013
f 87/87/56 88/80/56 89/88/56 
f 87/87/56 89/88/56 90/89/56 
f 79/86/56 86/90/56 91/91/56 
f 80/92/56 79/86/56 91/91/56 
f 90/89/56 80/92/56 91/91/56 
f 87/87/56 90/89/56 91/91/56 
usemtl 21___Default
f 92/87/57 93/80/57 94/93/57 
f 92/87/57 94/93/57 95/79/57 
f 88/78/57 87/94/57 96/95/57 
f 95/79/57 88/78/57 96/95/57 
f 92/87/57 95/79/57 96/95/57 
usemtl 15___Default
f 85/96/58 84/97/58 97/98/58 
f 86/86/59 85/96/59 97/98/59 
f 91/99/58 86/86/58 97/98/58 
f 97/98/58 92/100/58 96/101/58 
f 91/99/58 97/98/58 96/101/58 
f 91/99/58 96/101/58 87/77/58 
usemtl Material_013
f 93/102/60 92/103/60 97/104/61 
f 98/105/60 93/102/60 97/104/61 
f 99/89/61 98/105/60 97/104/61 
f 99/89/61 97/104/61 84/106/62 
f 100/107/62 99/89/61 84/106/62 
f 100/107/62 84/106/62 83/77/62 
f 100/107/62 83/77/62 82/78/62 
usemtl 21___Default
f 100/108/63 82/109/63 81/110/63 
f 81/110/63 80/111/63 90/112/63 
f 100/108/64 81/110/64 90/112/64 
f 94/113/63 93/114/63 98/115/63 
f 95/116/63 94/113/63 98/115/63 
f 88/117/63 95/116/63 98/115/63 
f 89/118/65 88/117/65 98/115/65 
f 90/112/66 89/118/66 98/115/66 
f 90/112/67 98/115/67 99/119/67 
f 100/108/63 90/112/63 99/119/63 
# 40 faces

#
# object Ay_Guey
#

v  121.2909 -0.3331 29.0072
v  121.2909 -0.3331 5.0237
v  138.1659 -0.3331 5.0237
v  138.1659 -0.3331 29.0072
v  121.2909 31.4439 29.0072
v  138.1659 31.4439 29.0072
v  138.1659 31.4439 5.0237
v  121.2909 31.4439 5.0237
# 8 vertices

vn 0.0000 -1.0000 -0.0000
vn 0.0000 1.0000 -0.0000
vn 0.0000 0.0000 1.0000
vn 1.0000 0.0000 -0.0000
vn 0.0000 0.0000 -1.0000
vn -1.0000 0.0000 -0.0000
# 6 vertex normals

vt 1.0000 0.0000 0.0000
vt 1.0000 1.0000 0.0000
vt 0.0000 1.0000 0.0000
vt 0.0000 0.0000 0.0000
# 4 texture coords

o Ay_Guey
g Ay_Guey
usemtl Material_013
s off
f 101/120/68 102/121/68 103/122/68 
f 103/122/68 104/123/68 101/120/68 
f 105/123/69 106/120/69 107/121/69 
f 107/121/69 108/122/69 105/123/69 
usemtl 21___Default
f 101/123/70 104/120/70 106/121/70 
f 106/121/70 105/122/70 101/123/70 
f 104/123/71 103/120/71 107/121/71 
f 107/121/71 106/122/71 104/123/71 
f 103/123/72 102/120/72 108/121/72 
f 108/121/72 107/122/72 103/123/72 
usemtl Material_013
f 102/123/73 101/120/73 105/121/73 
f 105/121/73 108/122/73 102/123/73 
# 12 faces

#
# object Apple_Store
#

v  121.5377 -0.3331 54.6376
v  121.5377 -0.3331 30.6541
v  138.4128 -0.3331 30.6541
v  138.4128 -0.3331 54.6376
v  121.5377 31.4439 54.6376
v  138.4128 31.4439 54.6376
v  138.4128 31.4439 30.6541
v  121.5377 31.4439 30.6541
# 8 vertices

vn 0.0000 -1.0000 -0.0000
vn 0.0000 1.0000 -0.0000
vn 0.0000 0.0000 1.0000
vn 1.0000 0.0000 -0.0000
vn 0.0000 0.0000 -1.0000
vn -1.0000 0.0000 -0.0000
# 6 vertex normals

vt 1.0000 0.0000 0.0000
vt 1.0000 1.0000 0.0000
vt 0.0000 1.0000 0.0000
vt 0.0000 0.0000 0.0000
# 4 texture coords

o Apple_Store
g Apple_Store
usemtl Material_013
s off
f 109/124/74 110/125/74 111/126/74 
f 111/126/74 112/127/74 109/124/74 
f 113/127/75 114/124/75 115/125/75 
f 115/125/75 116/126/75 113/127/75 
usemtl 21___Default
f 109/127/76 112/124/76 114/125/76 
f 114/125/76 113/126/76 109/127/76 
f 112/127/77 111/124/77 115/125/77 
f 115/125/77 114/126/77 112/127/77 
f 111/127/78 110/124/78 116/125/78 
f 116/125/78 115/126/78 111/127/78 
usemtl Material_003
f 110/127/79 109/124/79 113/125/79 
f 113/125/79 116/126/79 110/127/79 
# 12 faces

#
# object Restaurante_1
#

v  97.3560 -0.3331 -46.1929
v  46.6145 -0.3331 -46.1929
v  46.6146 -0.3331 -60.5992
v  97.3560 -0.3331 -60.5992
v  97.3560 31.0943 -46.1929
v  97.3560 31.0943 -60.5992
v  46.6146 31.0943 -60.5992
v  46.6145 31.0943 -46.1929
# 8 vertices

vn 0.0000 -1.0000 -0.0000
vn 0.0000 1.0000 -0.0000
vn 1.0000 0.0000 0.0000
vn 0.0000 0.0000 -1.0000
vn -1.0000 0.0000 -0.0000
vn -0.0000 0.0000 1.0000
# 6 vertex normals

vt 1.0000 0.0000 0.0000
vt 1.0000 1.0000 0.0000
vt 0.0000 1.0000 0.0000
vt 0.0000 0.0000 0.0000
# 4 texture coords

o Restaurante_1
g Restaurante_1
usemtl Material_013
s off
f 117/128/80 118/129/80 119/130/80 
f 119/130/80 120/131/80 117/128/80 
f 121/131/81 122/128/81 123/129/81 
f 123/129/81 124/130/81 121/131/81 
usemtl 21___Default
f 117/131/82 120/128/82 122/129/82 
f 122/129/82 121/130/82 117/131/82 
f 120/131/83 119/128/83 123/129/83 
f 123/129/83 122/130/83 120/131/83 
f 119/131/84 118/128/84 124/129/84 
f 124/129/84 123/130/84 119/131/84 
usemtl DefaultMaterial
f 118/131/85 117/128/85 121/129/85 
f 121/129/85 124/130/85 118/131/85 
# 12 faces

#
# object Palacio
#

v  -138.2230 -0.3331 44.0686
v  -138.2230 -0.3331 -7.5065
v  -121.3479 -0.3331 -7.5065
v  -121.3479 -0.3331 44.0686
v  -138.2230 31.4439 44.0686
v  -121.3479 31.4439 44.0686
v  -121.3479 31.4439 -7.5065
v  -138.2230 31.4439 -7.5065
# 8 vertices

vn 0.0000 -1.0000 -0.0000
vn 0.0000 1.0000 -0.0000
vn 0.0000 0.0000 1.0000
vn 1.0000 0.0000 -0.0000
vn 0.0000 0.0000 -1.0000
vn -1.0000 0.0000 -0.0000
# 6 vertex normals

vt 1.0000 0.0000 0.0000
vt 1.0000 1.0000 0.0000
vt 0.0000 1.0000 0.0000
vt 0.0000 0.0000 0.0000
# 4 texture coords

o Palacio
g Palacio
usemtl Material_013
s off
f 125/132/86 126/133/86 127/134/86 
f 127/134/86 128/135/86 125/132/86 
f 129/135/87 130/132/87 131/133/87 
f 131/133/87 132/134/87 129/135/87 
usemtl 21___Default
f 125/135/88 128/132/88 130/133/88 
f 130/133/88 129/134/88 125/135/88 
usemtl 20___Default
f 128/135/89 127/132/89 131/133/89 
f 131/133/89 130/134/89 128/135/89 
usemtl 21___Default
f 127/135/90 126/132/90 132/133/90 
f 132/133/90 131/134/90 127/135/90 
f 126/135/91 125/132/91 129/133/91 
f 129/133/91 132/134/91 126/135/91 
# 12 faces

#
# object Radioshack001
#

v  -121.1156 -0.3331 45.7845
v  -121.1156 -0.3331 69.7680
v  -137.9907 -0.3331 69.7680
v  -137.9907 -0.3331 45.7845
v  -121.1156 31.3628 45.7845
v  -137.9907 31.3628 45.7845
v  -137.9907 31.3628 69.7680
v  -121.1156 31.3628 69.7680
# 8 vertices

vn 0.0000 -1.0000 -0.0000
vn 0.0000 1.0000 -0.0000
vn -0.0000 0.0000 -1.0000
vn -1.0000 0.0000 0.0000
vn 0.0000 0.0000 1.0000
vn 1.0000 0.0000 -0.0000
# 6 vertex normals

vt 1.0000 0.0000 0.0000
vt 1.0000 1.0000 0.0000
vt 0.0000 1.0000 0.0000
vt 0.0000 0.0000 0.0000
# 4 texture coords

o Radioshack001
g Radioshack001
usemtl Material_013
s off
f 133/136/92 134/137/92 135/138/92 
f 135/138/92 136/139/92 133/136/92 
f 137/139/93 138/136/93 139/137/93 
f 139/137/93 140/138/93 137/139/93 
usemtl 21___Default
f 133/139/94 136/136/94 138/137/94 
f 138/137/94 137/138/94 133/139/94 
f 136/139/95 135/136/95 139/137/95 
f 139/137/95 138/138/95 136/139/95 
f 135/139/96 134/136/96 140/137/96 
f 140/137/96 139/138/96 135/139/96 
usemtl 16___Default
f 134/139/97 133/136/97 137/137/97 
f 137/137/97 140/138/97 134/139/97 
# 12 faces

