# 3ds Max Wavefront OBJ Exporter v0.99 - (c)2007 guruware
# File Created: 19.04.2024 00:02:56

mtllib FachadaCentroCom.mtl

#
# object Box001
#

v  -138.7500 0.0000 130.0000
v  -138.7500 0.0000 -20.0000
v  -138.2500 0.0000 -20.0000
v  -138.2500 0.0000 130.0000
v  -138.7500 70.0000 130.0000
v  -138.2500 70.0000 130.0000
v  -138.2500 70.0000 -20.0000
v  -138.7500 70.0000 -20.0000
# 8 vertices

vn 0.0000 -1.0000 -0.0000
vn 0.0000 1.0000 -0.0000
vn 0.0000 0.0000 1.0000
vn 1.0000 0.0000 -0.0000
vn 0.0000 0.0000 -1.0000
vn -1.0000 0.0000 -0.0000
# 6 vertex normals

vt 1.0000 0.0000 0.0000
vt 1.0000 1.0000 0.0000
vt 0.0000 1.0000 0.0000
vt 0.0000 0.0000 0.0000
# 4 texture coords

o Box001
g Box001
usemtl Material__26
s 2
f 1/1/1 2/2/1 3/3/1 
f 3/3/1 4/4/1 1/1/1 
s 4
f 5/4/2 6/1/2 7/2/2 
f 7/2/2 8/3/2 5/4/2 
s 8
f 1/4/3 4/1/3 6/2/3 
f 6/2/3 5/3/3 1/4/3 
s 16
f 4/4/4 3/1/4 7/2/4 
f 7/2/4 6/3/4 4/4/4 
s 32
f 3/4/5 2/1/5 8/2/5 
f 8/2/5 7/3/5 3/4/5 
s 64
f 2/4/6 1/1/6 5/2/6 
f 5/2/6 8/3/6 2/4/6 
# 12 faces

#
# object Box003
#

v  -138.7834 0.0000 130.0702
v  -138.4298 0.0000 129.7166
v  -117.2166 0.0000 150.9298
v  -117.5702 0.0000 151.2834
v  -138.7834 70.0000 130.0702
v  -117.5702 70.0000 151.2834
v  -117.2166 70.0000 150.9298
v  -138.4298 70.0000 129.7166
# 8 vertices

vn 0.0000 -1.0000 -0.0000
vn 0.0000 1.0000 -0.0000
vn -0.7071 0.0000 0.7071
vn 0.7071 0.0000 0.7071
vn 0.7071 0.0000 -0.7071
vn -0.7071 0.0000 -0.7071
# 6 vertex normals

vt 1.0000 0.0000 0.0000
vt 1.0000 1.0000 0.0000
vt 0.0000 1.0000 0.0000
vt 0.0000 0.0000 0.0000
# 4 texture coords

o Box003
g Box003
usemtl 01___Default
s 2
f 9/5/7 10/6/7 11/7/7 
f 11/7/7 12/8/7 9/5/7 
s 4
f 13/8/8 14/5/8 15/6/8 
f 15/6/8 16/7/8 13/8/8 
s 8
f 9/8/9 12/5/9 14/6/9 
f 14/6/9 13/7/9 9/8/9 
s 16
f 12/8/10 11/5/10 15/6/10 
f 15/6/10 14/7/10 12/8/10 
s 32
f 11/8/11 10/5/11 16/6/11 
f 16/6/11 15/7/11 11/8/11 
s 64
f 10/8/12 9/5/12 13/6/12 
f 13/6/12 16/7/12 10/8/12 
# 12 faces

#
# object Box004
#

v  138.2500 0.0000 130.0000
v  138.2500 0.0000 -20.0000
v  138.7500 0.0000 -20.0000
v  138.7500 0.0000 130.0000
v  138.2500 70.0000 130.0000
v  138.7500 70.0000 130.0000
v  138.7500 70.0000 -20.0000
v  138.2500 70.0000 -20.0000
# 8 vertices

vn 0.0000 -1.0000 -0.0000
vn 0.0000 1.0000 -0.0000
vn 0.0000 0.0000 1.0000
vn 1.0000 0.0000 -0.0000
vn 0.0000 0.0000 -1.0000
vn -1.0000 0.0000 -0.0000
# 6 vertex normals

vt 1.0000 0.0000 0.0000
vt 1.0000 1.0000 0.0000
vt 0.0000 1.0000 0.0000
vt 0.0000 0.0000 0.0000
# 4 texture coords

o Box004
g Box004
usemtl Material__26
s 2
f 17/9/13 18/10/13 19/11/13 
f 19/11/13 20/12/13 17/9/13 
s 4
f 21/12/14 22/9/14 23/10/14 
f 23/10/14 24/11/14 21/12/14 
s 8
f 17/12/15 20/9/15 22/10/15 
f 22/10/15 21/11/15 17/12/15 
s 16
f 20/12/16 19/9/16 23/10/16 
f 23/10/16 22/11/16 20/12/16 
s 32
f 19/12/17 18/9/17 24/10/17 
f 24/10/17 23/11/17 19/12/17 
s 64
f 18/12/18 17/9/18 21/10/18 
f 21/10/18 24/11/18 18/12/18 
# 12 faces

#
# object Box005
#

v  117.5702 0.0000 151.2834
v  117.2166 0.0000 150.9298
v  138.4298 0.0000 129.7166
v  138.7834 0.0000 130.0702
v  117.5702 70.0000 151.2834
v  138.7834 70.0000 130.0702
v  138.4298 70.0000 129.7166
v  117.2166 70.0000 150.9298
# 8 vertices

vn 0.0000 -1.0000 -0.0000
vn 0.0000 1.0000 -0.0000
vn 0.7071 0.0000 0.7071
vn 0.7071 0.0000 -0.7071
vn -0.7071 0.0000 -0.7071
vn -0.7071 0.0000 0.7071
# 6 vertex normals

vt 1.0000 0.0000 0.0000
vt 1.0000 1.0000 0.0000
vt 0.0000 1.0000 0.0000
vt 0.0000 0.0000 0.0000
# 4 texture coords

o Box005
g Box005
usemtl 01___Default
s 2
f 25/13/19 26/14/19 27/15/19 
f 27/15/19 28/16/19 25/13/19 
s 4
f 29/16/20 30/13/20 31/14/20 
f 31/14/20 32/15/20 29/16/20 
s 8
f 25/16/21 28/13/21 30/14/21 
f 30/14/21 29/15/21 25/16/21 
s 16
f 28/16/22 27/13/22 31/14/22 
f 31/14/22 30/15/22 28/16/22 
s 32
f 27/16/23 26/13/23 32/14/23 
f 32/14/23 31/15/23 27/16/23 
s 64
f 26/16/24 25/13/24 29/14/24 
f 29/14/24 32/15/24 26/16/24 
# 12 faces

#
# object Box006
#

v  -138.2904 0.0000 -29.7388
v  -138.6118 0.0000 -30.1218
v  -100.3096 0.0000 -62.2612
v  -99.9882 0.0000 -61.8782
v  -138.2904 70.0000 -29.7388
v  -99.9882 70.0000 -61.8782
v  -100.3096 70.0000 -62.2612
v  -138.6118 70.0000 -30.1218
# 8 vertices

vn 0.0000 -1.0000 -0.0000
vn 0.0000 1.0000 -0.0000
vn 0.6428 0.0000 0.7660
vn 0.7660 0.0000 -0.6428
vn -0.6428 0.0000 -0.7660
vn -0.7660 0.0000 0.6428
# 6 vertex normals

vt 1.0000 0.0000 0.0000
vt 1.0000 1.0000 0.0000
vt 0.0000 1.0000 0.0000
vt 0.0000 0.0000 0.0000
# 4 texture coords

o Box006
g Box006
usemtl 01___Default
s 2
f 33/17/25 34/18/25 35/19/25 
f 35/19/25 36/20/25 33/17/25 
s 4
f 37/20/26 38/17/26 39/18/26 
f 39/18/26 40/19/26 37/20/26 
s 8
f 33/20/27 36/17/27 38/18/27 
f 38/18/27 37/19/27 33/20/27 
s 16
f 36/20/28 35/17/28 39/18/28 
f 39/18/28 38/19/28 36/20/28 
s 32
f 35/20/29 34/17/29 40/18/29 
f 40/18/29 39/19/29 35/20/29 
s 64
f 34/20/30 33/17/30 37/18/30 
f 37/18/30 40/19/30 34/20/30 
# 12 faces

#
# object Box007
#

v  99.9882 0.0000 -61.8782
v  100.3096 0.0000 -62.2612
v  138.6118 0.0000 -30.1218
v  138.2904 0.0000 -29.7388
v  99.9882 70.0000 -61.8782
v  138.2904 70.0000 -29.7388
v  138.6118 70.0000 -30.1218
v  100.3096 70.0000 -62.2612
# 8 vertices

vn 0.0000 -1.0000 -0.0000
vn 0.0000 1.0000 -0.0000
vn -0.6428 0.0000 0.7660
vn 0.7660 0.0000 0.6428
vn 0.6428 0.0000 -0.7660
vn -0.7660 0.0000 -0.6428
# 6 vertex normals

vt 1.0000 0.0000 0.0000
vt 1.0000 1.0000 0.0000
vt 0.0000 1.0000 0.0000
vt 0.0000 0.0000 0.0000
# 4 texture coords

o Box007
g Box007
usemtl 01___Default
s 2
f 41/21/31 42/22/31 43/23/31 
f 43/23/31 44/24/31 41/21/31 
s 4
f 45/24/32 46/21/32 47/22/32 
f 47/22/32 48/23/32 45/24/32 
s 8
f 41/24/33 44/21/33 46/22/33 
f 46/22/33 45/23/33 41/24/33 
s 16
f 44/24/34 43/21/34 47/22/34 
f 47/22/34 46/23/34 44/24/34 
s 32
f 43/24/35 42/21/35 48/22/35 
f 48/22/35 47/23/35 43/24/35 
s 64
f 42/24/36 41/21/36 45/22/36 
f 45/22/36 48/23/36 42/24/36 
# 12 faces

#
# object Box008
#

v  100.0000 0.0000 -61.7500
v  -100.0000 0.0000 -61.7500
v  -100.0000 0.0000 -62.2500
v  100.0000 0.0000 -62.2500
v  100.0000 70.0000 -61.7500
v  100.0000 70.0000 -62.2500
v  -100.0000 70.0000 -62.2500
v  -100.0000 70.0000 -61.7500
# 8 vertices

vn 0.0000 -1.0000 -0.0000
vn 0.0000 1.0000 -0.0000
vn 1.0000 0.0000 -0.0000
vn -0.0000 0.0000 -1.0000
vn -1.0000 0.0000 0.0000
vn 0.0000 0.0000 1.0000
# 6 vertex normals

vt 1.0000 0.0000 0.0000
vt 1.0000 1.0000 0.0000
vt 0.0000 1.0000 0.0000
vt 0.0000 0.0000 0.0000
# 4 texture coords

o Box008
g Box008
usemtl Material__26
s 2
f 49/25/37 50/26/37 51/27/37 
f 51/27/37 52/28/37 49/25/37 
s 4
f 53/28/38 54/25/38 55/26/38 
f 55/26/38 56/27/38 53/28/38 
s 8
f 49/28/39 52/25/39 54/26/39 
f 54/26/39 53/27/39 49/28/39 
s 16
f 52/28/40 51/25/40 55/26/40 
f 55/26/40 54/27/40 52/28/40 
s 32
f 51/28/41 50/25/41 56/26/41 
f 56/26/41 55/27/41 51/28/41 
s 64
f 50/28/42 49/25/42 53/26/42 
f 53/26/42 56/27/42 50/28/42 
# 12 faces

#
# object Box009
#

v  -117.5000 0.0000 151.2500
v  -117.5000 0.0000 150.7500
v  -37.5000 0.0000 150.7500
v  -37.5000 0.0000 151.2500
v  -117.5000 70.0000 151.2500
v  -37.5000 70.0000 151.2500
v  -37.5000 70.0000 150.7500
v  -117.5000 70.0000 150.7500
# 8 vertices

vn 0.0000 -1.0000 -0.0000
vn 0.0000 1.0000 -0.0000
vn 0.0000 0.0000 1.0000
vn 1.0000 0.0000 -0.0000
vn 0.0000 0.0000 -1.0000
vn -1.0000 0.0000 -0.0000
# 6 vertex normals

vt 1.0000 0.0000 0.0000
vt 1.0000 1.0000 0.0000
vt 0.0000 1.0000 0.0000
vt 0.0000 0.0000 0.0000
# 4 texture coords

o Box009
g Box009
usemtl 01___Default
s 2
f 57/29/43 58/30/43 59/31/43 
f 59/31/43 60/32/43 57/29/43 
s 4
f 61/32/44 62/29/44 63/30/44 
f 63/30/44 64/31/44 61/32/44 
s 8
f 57/32/45 60/29/45 62/30/45 
f 62/30/45 61/31/45 57/32/45 
s 16
f 60/32/46 59/29/46 63/30/46 
f 63/30/46 62/31/46 60/32/46 
s 32
f 59/32/47 58/29/47 64/30/47 
f 64/30/47 63/31/47 59/32/47 
s 64
f 58/32/48 57/29/48 61/30/48 
f 61/30/48 64/31/48 58/32/48 
# 12 faces

#
# object Box010
#

v  37.5000 0.0000 151.2500
v  37.5000 0.0000 150.7500
v  117.5000 0.0000 150.7500
v  117.5000 0.0000 151.2500
v  37.5000 70.0000 151.2500
v  117.5000 70.0000 151.2500
v  117.5000 70.0000 150.7500
v  37.5000 70.0000 150.7500
# 8 vertices

vn 0.0000 -1.0000 -0.0000
vn 0.0000 1.0000 -0.0000
vn 0.0000 0.0000 1.0000
vn 1.0000 0.0000 -0.0000
vn 0.0000 0.0000 -1.0000
vn -1.0000 0.0000 -0.0000
# 6 vertex normals

vt 1.0000 0.0000 0.0000
vt 1.0000 1.0000 0.0000
vt 0.0000 1.0000 0.0000
vt 0.0000 0.0000 0.0000
# 4 texture coords

o Box010
g Box010
usemtl 01___Default
s 2
f 65/33/49 66/34/49 67/35/49 
f 67/35/49 68/36/49 65/33/49 
s 4
f 69/36/50 70/33/50 71/34/50 
f 71/34/50 72/35/50 69/36/50 
s 8
f 65/36/51 68/33/51 70/34/51 
f 70/34/51 69/35/51 65/36/51 
s 16
f 68/36/52 67/33/52 71/34/52 
f 71/34/52 70/35/52 68/36/52 
s 32
f 67/36/53 66/33/53 72/34/53 
f 72/34/53 71/35/53 67/36/53 
s 64
f 66/36/54 65/33/54 69/34/54 
f 69/34/54 72/35/54 66/36/54 
# 12 faces

#
# object Box011
#

v  -37.4298 0.0000 151.2834
v  -37.7834 0.0000 150.9298
v  -16.5702 0.0000 129.7166
v  -16.2166 0.0000 130.0702
v  -37.4298 70.0000 151.2834
v  -16.2166 70.0000 130.0702
v  -16.5702 70.0000 129.7166
v  -37.7834 70.0000 150.9298
# 8 vertices

vn 0.0000 -1.0000 -0.0000
vn 0.0000 1.0000 -0.0000
vn 0.7071 0.0000 0.7071
vn 0.7071 0.0000 -0.7071
vn -0.7071 0.0000 -0.7071
vn -0.7071 0.0000 0.7071
# 6 vertex normals

vt 1.0000 0.0000 0.0000
vt 1.0000 1.0000 0.0000
vt 0.0000 1.0000 0.0000
vt 0.0000 0.0000 0.0000
# 4 texture coords

o Box011
g Box011
usemtl 01___Default
s 2
f 73/37/55 74/38/55 75/39/55 
f 75/39/55 76/40/55 73/37/55 
s 4
f 77/40/56 78/37/56 79/38/56 
f 79/38/56 80/39/56 77/40/56 
s 8
f 73/40/57 76/37/57 78/38/57 
f 78/38/57 77/39/57 73/40/57 
s 16
f 76/40/58 75/37/58 79/38/58 
f 79/38/58 78/39/58 76/40/58 
s 32
f 75/40/59 74/37/59 80/38/59 
f 80/38/59 79/39/59 75/40/59 
s 64
f 74/40/60 73/37/60 77/38/60 
f 77/38/60 80/39/60 74/40/60 
# 12 faces

#
# object Box012
#

v  16.2166 0.0000 130.0702
v  16.5702 0.0000 129.7166
v  37.7834 0.0000 150.9298
v  37.4298 0.0000 151.2834
v  16.2166 70.0000 130.0702
v  37.4298 70.0000 151.2834
v  37.7834 70.0000 150.9298
v  16.5702 70.0000 129.7166
# 8 vertices

vn 0.0000 -1.0000 -0.0000
vn 0.0000 1.0000 -0.0000
vn -0.7071 0.0000 0.7071
vn 0.7071 0.0000 0.7071
vn 0.7071 0.0000 -0.7071
vn -0.7071 0.0000 -0.7071
# 6 vertex normals

vt 1.0000 0.0000 0.0000
vt 1.0000 1.0000 0.0000
vt 0.0000 1.0000 0.0000
vt 0.0000 0.0000 0.0000
# 4 texture coords

o Box012
g Box012
usemtl 01___Default
s 2
f 81/41/61 82/42/61 83/43/61 
f 83/43/61 84/44/61 81/41/61 
s 4
f 85/44/62 86/41/62 87/42/62 
f 87/42/62 88/43/62 85/44/62 
s 8
f 81/44/63 84/41/63 86/42/63 
f 86/42/63 85/43/63 81/44/63 
s 16
f 84/44/64 83/41/64 87/42/64 
f 87/42/64 86/43/64 84/44/64 
s 32
f 83/44/65 82/41/65 88/42/65 
f 88/42/65 87/43/65 83/44/65 
s 64
f 82/44/66 81/41/66 85/42/66 
f 85/42/66 88/43/66 82/44/66 
# 12 faces

#
# object Box013
#

v  16.2500 0.0000 130.0000
v  16.2500 0.0000 30.0000
v  16.7500 0.0000 30.0000
v  16.7500 0.0000 130.0000
v  16.2500 70.0000 130.0000
v  16.7500 70.0000 130.0000
v  16.7500 70.0000 30.0000
v  16.2500 70.0000 30.0000
# 8 vertices

vn 0.0000 -1.0000 -0.0000
vn 0.0000 1.0000 -0.0000
vn 0.0000 0.0000 1.0000
vn 1.0000 0.0000 -0.0000
vn 0.0000 0.0000 -1.0000
vn -1.0000 0.0000 -0.0000
# 6 vertex normals

vt 1.0000 0.0000 0.0000
vt 1.0000 1.0000 0.0000
vt 0.0000 1.0000 0.0000
vt 0.0000 0.0000 0.0000
# 4 texture coords

o Box013
g Box013
usemtl Material__26
s 2
f 89/45/67 90/46/67 91/47/67 
f 91/47/67 92/48/67 89/45/67 
s 4
f 93/48/68 94/45/68 95/46/68 
f 95/46/68 96/47/68 93/48/68 
s 8
f 89/48/69 92/45/69 94/46/69 
f 94/46/69 93/47/69 89/48/69 
s 16
f 92/48/70 91/45/70 95/46/70 
f 95/46/70 94/47/70 92/48/70 
s 32
f 91/48/71 90/45/71 96/46/71 
f 96/46/71 95/47/71 91/48/71 
s 64
f 90/48/72 89/45/72 93/46/72 
f 93/46/72 96/47/72 90/48/72 
# 12 faces

#
# object Box014
#

v  -16.7500 0.0000 130.0000
v  -16.7500 0.0000 30.0000
v  -16.2500 0.0000 30.0000
v  -16.2500 0.0000 130.0000
v  -16.7500 70.0000 130.0000
v  -16.2500 70.0000 130.0000
v  -16.2500 70.0000 30.0000
v  -16.7500 70.0000 30.0000
# 8 vertices

vn 0.0000 -1.0000 -0.0000
vn 0.0000 1.0000 -0.0000
vn 0.0000 0.0000 1.0000
vn 1.0000 0.0000 -0.0000
vn 0.0000 0.0000 -1.0000
vn -1.0000 0.0000 -0.0000
# 6 vertex normals

vt 1.0000 0.0000 0.0000
vt 1.0000 1.0000 0.0000
vt 0.0000 1.0000 0.0000
vt 0.0000 0.0000 0.0000
# 4 texture coords

o Box014
g Box014
usemtl Material__26
s 2
f 97/49/73 98/50/73 99/51/73 
f 99/51/73 100/52/73 97/49/73 
s 4
f 101/52/74 102/49/74 103/50/74 
f 103/50/74 104/51/74 101/52/74 
s 8
f 97/52/75 100/49/75 102/50/75 
f 102/50/75 101/51/75 97/52/75 
s 16
f 100/52/76 99/49/76 103/50/76 
f 103/50/76 102/51/76 100/52/76 
s 32
f 99/52/77 98/49/77 104/50/77 
f 104/50/77 103/51/77 99/52/77 
s 64
f 98/52/78 97/49/78 101/50/78 
f 101/50/78 104/51/78 98/52/78 
# 12 faces

#
# object Box015
#

v  -138.7500 20.0000 -20.0000
v  -138.7500 20.0000 -30.0000
v  -138.2500 20.0000 -30.0000
v  -138.2500 20.0000 -20.0000
v  -138.7500 70.0000 -20.0000
v  -138.2500 70.0000 -20.0000
v  -138.2500 70.0000 -30.0000
v  -138.7500 70.0000 -30.0000
# 8 vertices

vn 0.0000 -1.0000 -0.0000
vn 0.0000 1.0000 -0.0000
vn 0.0000 0.0000 1.0000
vn 1.0000 0.0000 -0.0000
vn 0.0000 0.0000 -1.0000
vn -1.0000 0.0000 -0.0000
# 6 vertex normals

vt 1.0000 0.0000 0.0000
vt 1.0000 1.0000 0.0000
vt 0.0000 1.0000 0.0000
vt 0.0000 0.0000 0.0000
# 4 texture coords

o Box015
g Box015
usemtl Material__26
s 2
f 105/53/79 106/54/79 107/55/79 
f 107/55/79 108/56/79 105/53/79 
s 4
f 109/56/80 110/53/80 111/54/80 
f 111/54/80 112/55/80 109/56/80 
s 8
f 105/56/81 108/53/81 110/54/81 
f 110/54/81 109/55/81 105/56/81 
s 16
f 108/56/82 107/53/82 111/54/82 
f 111/54/82 110/55/82 108/56/82 
s 32
f 107/56/83 106/53/83 112/54/83 
f 112/54/83 111/55/83 107/56/83 
s 64
f 106/56/84 105/53/84 109/54/84 
f 109/54/84 112/55/84 106/56/84 
# 12 faces

#
# object Box016
#

v  138.2500 20.0000 -20.0000
v  138.2500 20.0000 -30.0000
v  138.7500 20.0000 -30.0000
v  138.7500 20.0000 -20.0000
v  138.2500 70.0000 -20.0000
v  138.7500 70.0000 -20.0000
v  138.7500 70.0000 -30.0000
v  138.2500 70.0000 -30.0000
# 8 vertices

vn 0.0000 -1.0000 -0.0000
vn 0.0000 1.0000 -0.0000
vn 0.0000 0.0000 1.0000
vn 1.0000 0.0000 -0.0000
vn 0.0000 0.0000 -1.0000
vn -1.0000 0.0000 -0.0000
# 6 vertex normals

vt 1.0000 0.0000 0.0000
vt 1.0000 1.0000 0.0000
vt 0.0000 1.0000 0.0000
vt 0.0000 0.0000 0.0000
# 4 texture coords

o Box016
g Box016
usemtl Material__26
s 2
f 113/57/85 114/58/85 115/59/85 
f 115/59/85 116/60/85 113/57/85 
s 4
f 117/60/86 118/57/86 119/58/86 
f 119/58/86 120/59/86 117/60/86 
s 8
f 113/60/87 116/57/87 118/58/87 
f 118/58/87 117/59/87 113/60/87 
s 16
f 116/60/88 115/57/88 119/58/88 
f 119/58/88 118/59/88 116/60/88 
s 32
f 115/60/89 114/57/89 120/58/89 
f 120/58/89 119/59/89 115/60/89 
s 64
f 114/60/90 113/57/90 117/58/90 
f 117/58/90 120/59/90 114/60/90 
# 12 faces

#
# object Box017
#

v  -250.0000 0.0000 -250.0000
v  -250.0000 0.0000 250.0000
v  250.0000 0.0000 -250.0000
v  250.0000 0.0000 250.0000
v  250.0000 -3.0000 250.0000
v  -250.0000 -3.0000 250.0000
v  250.0000 -3.0000 -250.0000
v  -250.0000 -3.0000 -250.0000
# 8 vertices

vn 0.0000 1.0000 -0.0000
vn 0.0000 -1.0000 -0.0000
vn 0.0000 0.0000 1.0000
vn 1.0000 0.0000 -0.0000
vn 0.0000 0.0000 -1.0000
vn -1.0000 0.0000 -0.0000
# 6 vertex normals

vt 0.0000 20.0000 1.0000
vt 0.0000 0.0000 1.0000
vt 20.0000 20.0000 1.0000
vt 20.0000 0.0000 1.0000
vt 20.0000 0.0000 0.0000
vt 0.0000 0.0000 0.0000
vt 20.0000 20.0000 0.0000
vt 0.0000 20.0000 0.0000
# 8 texture coords

o Box017
g Box017
usemtl Material__41
s 2
f 121/61/91 122/62/91 123/63/91 
f 124/64/91 123/63/91 122/62/91 
s 4
f 125/65/92 126/66/92 127/67/92 
f 128/68/92 127/67/92 126/66/92 
s 8
f 124/64/93 122/62/93 125/65/93 
f 126/66/93 125/65/93 122/62/93 
s 16
f 123/63/94 124/64/94 127/67/94 
f 125/65/94 127/67/94 124/64/94 
s 32
f 121/61/95 123/63/95 128/68/95 
f 127/67/95 128/68/95 123/63/95 
s 64
f 122/62/96 121/61/96 126/66/96 
f 128/68/96 126/66/96 121/61/96 
# 12 faces

#
# object Box018
#

v  -150.0000 0.5000 -85.0000
v  -150.0000 0.5000 165.0000
v  150.0000 0.5000 -85.0000
v  150.0000 0.5000 165.0000
v  150.0000 -2.5000 165.0000
v  -150.0000 -2.5000 165.0000
v  150.0000 -2.5000 -85.0000
v  -150.0000 -2.5000 -85.0000
# 8 vertices

vn 0.0000 1.0000 -0.0000
vn 0.0000 -1.0000 -0.0000
vn 0.0000 0.0000 1.0000
vn 1.0000 0.0000 -0.0000
vn 0.0000 0.0000 -1.0000
vn -1.0000 0.0000 -0.0000
# 6 vertex normals

vt 0.0000 1.0000 0.0000
vt 0.0000 0.0000 0.0000
vt 1.0000 1.0000 0.0000
vt 1.0000 0.0000 0.0000
# 4 texture coords

o Box018
g Box018
usemtl wire_086086086
s 2
f 129/69/97 130/70/97 131/71/97 
f 132/72/97 131/71/97 130/70/97 
s 4
f 133/70/98 134/72/98 135/69/98 
f 136/71/98 135/69/98 134/72/98 
s 8
f 132/72/99 130/70/99 133/71/99 
f 134/69/99 133/71/99 130/70/99 
s 16
f 131/72/100 132/70/100 135/71/100 
f 133/69/100 135/71/100 132/70/100 
s 32
f 129/72/101 131/70/101 136/71/101 
f 135/69/101 136/71/101 131/70/101 
s 64
f 130/72/102 129/70/102 134/71/102 
f 136/69/102 134/71/102 129/70/102 
# 12 faces

