# 3ds Max Wavefront OBJ Exporter v0.99 - (c)2007 guruware
# File Created: 10.05.2024 14:34:29

mtllib Locales2do.mtl

#
# object Box032
#

v  -29.2050 67.5909 -40.5312
v  -88.5220 67.5909 -40.5312
v  -88.5220 42.1693 -40.5312
v  -88.5220 37.5909 -40.5312
v  -29.2050 37.5909 -40.5312
v  -29.2050 67.5909 -60.5312
v  -29.2050 37.5909 -60.5312
v  -99.2050 67.5909 -60.5312
v  -99.2050 37.5909 -60.5312
v  -99.2050 37.5909 -60.2293
v  -99.2050 38.0436 -60.2293
v  -99.2050 67.5909 -60.2293
v  -89.9553 37.5909 -43.1739
v  -89.9553 67.5909 -43.1739
# 14 vertices

vn 0.0000 0.0000 1.0000
vn 1.0000 0.0000 -0.0000
vn 0.0000 0.0000 -1.0000
vn -1.0000 0.0000 -0.0000
vn 0.0000 -1.0000 -0.0000
vn 0.0000 1.0000 -0.0000
vn -0.8790 0.0000 0.4767
# 7 vertex normals

vt 1.0000 1.0000 0.0000
vt 0.1526 1.0000 0.0000
vt 0.1526 0.1526 0.0000
vt 0.1526 0.0000 0.0000
vt 1.0000 0.0000 0.0000
vt 0.0000 1.0000 0.0000
vt 0.0000 0.0000 0.0000
vt 0.0151 0.0000 0.0000
vt 0.0151 0.0151 0.0000
vt 0.0151 1.0000 0.0000
vt 1.0000 0.9849 0.0000
vt 0.8679 0.1321 0.0000
vt 0.8474 0.0000 0.0000
vt 0.1321 0.1321 0.0000
vt 0.0000 0.9849 0.0000
vt 0.0400 0.1725 0.1867
vt 0.0400 0.5357 0.1867
vt 0.0830 0.5357 0.1867
vt 0.0400 0.1071 0.1867
vt 0.0830 0.1071 0.1867
vt 0.3602 0.5357 0.1867
vt 0.3602 0.1136 0.1867
vt 0.3602 0.1071 0.1867
# 23 texture coords

o Box032
g Box032
usemtl Material__348
s 8
f 1/1/1 2/2/1 3/3/1 
f 1/1/1 3/3/1 4/4/1 
f 1/1/1 4/4/1 5/5/1 
usemtl Cylinder_002_mso
s 16
f 6/1/2 1/6/2 5/7/2 
f 5/7/2 7/5/2 6/1/2 
s 32
f 8/1/3 6/6/3 7/7/3 
f 7/7/3 9/5/3 8/1/3 
usemtl Material__351
s 64
f 9/7/4 10/8/4 11/9/4 
f 9/7/4 11/9/4 12/10/4 
f 9/7/4 12/10/4 8/6/4 
usemtl Material_013
s 2
f 10/11/5 9/1/5 7/6/5 
f 13/12/5 10/11/5 7/6/5 
f 13/12/5 7/6/5 5/7/5 
f 13/12/5 5/7/5 4/13/5 
s 4
f 2/4/6 1/5/6 6/1/6 
f 14/14/6 2/4/6 6/1/6 
f 14/14/6 6/1/6 8/6/6 
f 14/14/6 8/6/6 12/15/6 
usemtl Cylinder_002_mso
s off
f 3/16/7 2/17/7 14/18/7 
f 4/19/7 3/16/7 14/18/7 
f 13/20/7 4/19/7 14/18/7 
f 14/18/7 12/21/7 11/22/7 
f 13/20/7 14/18/7 11/22/7 
f 13/20/7 11/22/7 10/23/7 
# 24 faces

#
# object Box033
#

v  29.6238 37.5909 -40.5312
v  29.6238 37.5909 -60.5312
v  99.6238 37.5909 -60.5312
v  99.6238 37.5909 -40.5312
v  29.6238 67.5909 -40.5312
v  99.6238 67.5909 -40.5312
v  99.6238 67.5909 -60.5312
v  29.6238 67.5909 -60.5312
# 8 vertices

vn 0.0000 -1.0000 -0.0000
vn 0.0000 1.0000 -0.0000
vn 0.0000 0.0000 1.0000
vn 1.0000 0.0000 -0.0000
vn 0.0000 0.0000 -1.0000
vn -1.0000 0.0000 -0.0000
# 6 vertex normals

vt 1.0000 0.0000 0.0000
vt 1.0000 1.0000 0.0000
vt 0.0000 1.0000 0.0000
vt 0.0000 0.0000 0.0000
# 4 texture coords

o Box033
g Box033
usemtl Material_013
s 2
f 15/24/8 16/25/8 17/26/8 
f 17/26/8 18/27/8 15/24/8 
s 4
f 19/27/9 20/24/9 21/25/9 
f 21/25/9 22/26/9 19/27/9 
usemtl Material__360
s 8
f 15/27/10 18/24/10 20/25/10 
f 20/25/10 19/26/10 15/27/10 
usemtl Cylinder_002_mso
s 16
f 18/27/11 17/24/11 21/25/11 
f 21/25/11 20/26/11 18/27/11 
s 32
f 17/27/12 16/24/12 22/25/12 
f 22/25/12 21/26/12 17/27/12 
s 64
f 16/27/13 15/24/13 19/25/13 
f 19/25/13 22/26/13 16/27/13 
# 12 faces

#
# object Box034
#

v  -118.0694 66.9208 41.4202
v  -138.0694 66.9208 41.4202
v  -138.0694 36.9208 41.4202
v  -118.0694 36.9208 41.4202
v  -118.0694 36.9208 -10.8116
v  -118.0694 59.3058 -10.8116
v  -118.0694 66.9208 -10.8116
v  -138.0694 66.9208 -28.5798
v  -137.5824 66.9208 -28.5798
v  -137.5824 66.1902 -28.5798
v  -137.5824 36.9208 -28.5798
v  -138.0694 36.9208 -28.5798
v  -122.0980 36.9208 -14.4799
v  -122.0980 66.9208 -14.4799
# 14 vertices

vn 0.0000 0.0000 1.0000
vn 1.0000 0.0000 -0.0000
vn 0.0000 0.0000 -1.0000
vn -1.0000 0.0000 -0.0000
vn 0.0000 -1.0000 -0.0000
vn 0.0000 1.0000 -0.0000
vn 0.6733 0.0000 -0.7394
vn 0.6733 -0.0000 -0.7394
# 8 vertex normals

vt 1.0000 1.0000 0.0000
vt 0.0000 1.0000 0.0000
vt 0.0000 0.0000 0.0000
vt 1.0000 0.0000 0.0000
vt 0.7462 0.0000 0.0000
vt 0.7462 0.7462 0.0000
vt 0.7462 1.0000 0.0000
vt 0.9756 1.0000 0.0000
vt 0.9756 0.9756 0.0000
vt 0.9756 0.0000 0.0000
vt 0.0000 0.7462 0.0000
vt 0.2014 0.7986 0.0000
vt 0.0244 1.0000 0.0000
vt 0.7986 0.7986 0.0000
vt 1.0000 0.7462 0.0000
vt 0.1379 0.1071 -0.1391
vt 0.4371 0.1071 -0.1391
vt 0.4371 0.5253 -0.1391
vt 0.4371 0.5357 -0.1391
vt 0.1379 0.5357 -0.1391
vt 0.0601 0.5357 -0.1391
vt 0.0601 0.4269 -0.1391
vt 0.0601 0.1071 -0.1391
# 23 texture coords

o Box034
g Box034
usemtl Cylinder_002_mso
s 8
f 23/28/14 24/29/14 25/30/14 
f 25/30/14 26/31/14 23/28/14 
usemtl Material__335
s 16
f 26/30/15 27/32/15 28/33/15 
f 26/30/15 28/33/15 29/34/15 
f 26/30/15 29/34/15 23/29/15 
usemtl Material__341
s 32
f 30/28/16 31/35/16 32/36/16 
f 30/28/16 32/36/16 33/37/16 
f 30/28/16 33/37/16 34/31/16 
usemtl Cylinder_002_mso
s 64
f 24/28/17 30/29/17 34/30/17 
f 34/30/17 25/31/17 24/28/17 
usemtl Material_013
s 2
f 27/38/18 26/30/18 25/31/18 
f 35/39/18 27/38/18 25/31/18 
f 35/39/18 25/31/18 34/28/18 
f 35/39/18 34/28/18 33/35/18 
s 4
f 31/40/19 30/29/19 24/30/19 
f 36/41/19 31/40/19 24/30/19 
f 36/41/19 24/30/19 23/31/19 
f 36/41/19 23/31/19 29/42/19 
usemtl Cylinder_002_mso
s off
f 35/43/20 33/44/20 32/45/20 
f 32/45/20 31/46/20 36/47/20 
f 36/47/20 29/48/20 28/49/20 
f 32/45/20 36/47/20 28/49/20 
f 35/43/21 32/45/21 28/49/21 
f 35/43/20 28/49/20 27/50/20 
# 24 faces

#
# object Box035
#

v  -138.1255 37.3649 61.5358
v  -138.1255 37.3649 41.5358
v  -118.1255 37.3649 41.5358
v  -118.1255 37.3649 61.5358
v  -138.1255 57.3649 61.5358
v  -118.1255 57.3649 61.5358
v  -118.1255 57.3649 41.5358
v  -138.1255 57.3649 41.5358
# 8 vertices

vn 0.0000 -1.0000 -0.0000
vn 0.0000 1.0000 -0.0000
vn 0.0000 0.0000 1.0000
vn 1.0000 0.0000 -0.0000
vn 0.0000 0.0000 -1.0000
vn -1.0000 0.0000 -0.0000
# 6 vertex normals

vt 1.0000 0.0000 0.0000
vt 1.0000 1.0000 0.0000
vt 0.0000 1.0000 0.0000
vt 0.0000 0.0000 0.0000
# 4 texture coords

o Box035
g Box035
usemtl Material_013
s 2
f 37/51/22 38/52/22 39/53/22 
f 39/53/22 40/54/22 37/51/22 
s 4
f 41/54/23 42/51/23 43/52/23 
f 43/52/23 44/53/23 41/54/23 
usemtl Cylinder_002_mso
s 8
f 37/54/24 40/51/24 42/52/24 
f 42/52/24 41/53/24 37/54/24 
usemtl Material__311
s 16
f 40/54/25 39/51/25 43/52/25 
f 43/52/25 42/53/25 40/54/25 
usemtl Cylinder_002_mso
s 32
f 39/54/26 38/51/26 44/52/26 
f 44/52/26 43/53/26 39/54/26 
s 64
f 38/54/27 37/51/27 41/52/27 
f 41/52/27 44/53/27 38/54/27 
# 12 faces

#
# object Box036
#

v  -138.1255 37.3649 81.8019
v  -138.1255 37.3649 61.8019
v  -118.1255 37.3649 61.8019
v  -118.1255 37.3649 81.8019
v  -138.1255 57.3649 81.8019
v  -118.1255 57.3649 81.8019
v  -118.1255 57.3649 61.8019
v  -138.1255 57.3649 61.8019
# 8 vertices

vn 0.0000 -1.0000 -0.0000
vn 0.0000 1.0000 -0.0000
vn 0.0000 0.0000 1.0000
vn 1.0000 0.0000 -0.0000
vn 0.0000 0.0000 -1.0000
vn -1.0000 0.0000 -0.0000
# 6 vertex normals

vt 1.0000 0.0000 0.0000
vt 1.0000 1.0000 0.0000
vt 0.0000 1.0000 0.0000
vt 0.0000 0.0000 0.0000
# 4 texture coords

o Box036
g Box036
usemtl Material_013
s 2
f 45/55/28 46/56/28 47/57/28 
f 47/57/28 48/58/28 45/55/28 
s 4
f 49/58/29 50/55/29 51/56/29 
f 51/56/29 52/57/29 49/58/29 
usemtl Cylinder_002_mso
s 8
f 45/58/30 48/55/30 50/56/30 
f 50/56/30 49/57/30 45/58/30 
usemtl AdditionalPot_Cylinder_004_mso
s 16
f 48/58/31 47/55/31 51/56/31 
f 51/56/31 50/57/31 48/58/31 
usemtl Cylinder_002_mso
s 32
f 47/58/32 46/55/32 52/56/32 
f 52/56/32 51/57/32 47/58/32 
s 64
f 46/58/33 45/55/33 49/56/33 
f 49/56/33 52/57/33 46/58/33 
# 12 faces

#
# object Box037
#

v  -138.1255 37.3649 102.2983
v  -138.1255 37.3649 82.2983
v  -118.1255 37.3649 82.2983
v  -118.1255 37.3649 102.2983
v  -138.1255 57.3649 102.2983
v  -118.1255 57.3649 102.2983
v  -118.1255 57.3649 82.2983
v  -138.1255 57.3649 82.2983
# 8 vertices

vn 0.0000 -1.0000 -0.0000
vn 0.0000 1.0000 -0.0000
vn 0.0000 0.0000 1.0000
vn 1.0000 0.0000 -0.0000
vn 0.0000 0.0000 -1.0000
vn -1.0000 0.0000 -0.0000
# 6 vertex normals

vt 1.0000 0.0000 0.0000
vt 1.0000 1.0000 0.0000
vt 0.0000 1.0000 0.0000
vt 0.0000 0.0000 0.0000
# 4 texture coords

o Box037
g Box037
usemtl Material_013
s 2
f 53/59/34 54/60/34 55/61/34 
f 55/61/34 56/62/34 53/59/34 
s 4
f 57/62/35 58/59/35 59/60/35 
f 59/60/35 60/61/35 57/62/35 
usemtl Cylinder_002_mso
s 8
f 53/62/36 56/59/36 58/60/36 
f 58/60/36 57/61/36 53/62/36 
usemtl 21___Default
s 16
f 56/62/37 55/59/37 59/60/37 
f 59/60/37 58/61/37 56/62/37 
usemtl Cylinder_002_mso
s 32
f 55/62/38 54/59/38 60/60/38 
f 60/60/38 59/61/38 55/62/38 
s 64
f 54/62/39 53/59/39 57/60/39 
f 57/60/39 60/61/39 54/62/39 
# 12 faces

#
# object Box038
#

v  -138.1255 37.3649 130.9399
v  -137.9843 37.3649 130.9399
v  -137.9843 37.5061 130.9399
v  -137.9843 57.3649 130.9399
v  -138.1255 57.3649 130.9399
v  -118.1255 57.3649 102.4399
v  -118.1255 57.3649 124.6747
v  -118.1255 41.7615 124.6747
v  -118.1255 37.3649 124.6747
v  -118.1255 37.3649 102.4399
v  -138.1255 57.3649 102.4399
v  -138.1255 37.3649 102.4399
# 12 vertices

vn 0.0000 0.0000 1.0000
vn 1.0000 0.0000 -0.0000
vn 0.0000 0.0000 -1.0000
vn -1.0000 0.0000 -0.0000
vn 0.0000 -1.0000 -0.0000
vn 0.0000 1.0000 -0.0000
vn 0.3009 0.0000 0.9537
# 7 vertex normals

vt 0.0000 0.0000 0.0000
vt 0.0071 0.0000 0.0000
vt 0.0071 0.0071 0.0000
vt 0.0071 1.0000 0.0000
vt 0.0000 1.0000 0.0000
vt 1.0000 1.0000 0.0000
vt 0.2198 1.0000 0.0000
vt 0.2198 0.2198 0.0000
vt 0.2198 0.0000 0.0000
vt 1.0000 0.0000 0.0000
vt 0.0000 0.2198 0.0000
vt 0.9929 0.0000 0.0000
vt 1.0000 0.2198 0.0000
vt -0.4803 0.1804 -0.1864
vt -0.4803 0.1754 -0.1864
vt 0.2503 0.1754 -0.1864
vt 0.2503 0.3297 -0.1864
vt 0.2503 0.8772 -0.1864
vt -0.4803 0.8772 -0.1864
# 19 texture coords

o Box038
g Box038
usemtl Material__270
s 8
f 61/63/40 62/64/40 63/65/40 
f 61/63/40 63/65/40 64/66/40 
f 61/63/40 64/66/40 65/67/40 
usemtl 19___Default
s 16
f 66/68/41 67/69/41 68/70/41 
f 66/68/41 68/70/41 69/71/41 
f 66/68/41 69/71/41 70/72/41 
usemtl Cylinder_002_mso
s 32
f 71/68/42 66/67/42 70/63/42 
f 70/63/42 72/72/42 71/68/42 
s 64
f 65/68/43 71/67/43 72/63/43 
f 72/63/43 61/72/43 65/68/43 
usemtl Material_013
s 2
f 70/67/44 69/73/44 62/74/44 
f 70/67/44 62/74/44 61/72/44 
f 70/67/44 61/72/44 72/68/44 
s 4
f 65/63/45 64/64/45 67/75/45 
f 65/63/45 67/75/45 66/68/45 
f 65/63/45 66/68/45 71/67/45 
usemtl Cylinder_002_mso
s off
f 63/76/46 62/77/46 69/78/46 
f 63/76/46 69/78/46 68/79/46 
f 68/79/46 67/80/46 64/81/46 
f 63/76/46 68/79/46 64/81/46 
# 20 faces

#
# object Box043
#

v  -79.8044 57.3739 152.1097
v  -117.4440 57.3739 152.1097
v  -117.4440 46.6197 152.1097
v  -117.4440 37.3739 152.1097
v  -79.8044 37.3739 152.1097
v  -79.8044 37.3739 125.1097
v  -79.8044 57.3739 125.1097
v  -120.3884 37.3739 125.1097
v  -119.8666 48.8202 125.1097
v  -119.4766 57.3739 125.1097
v  -138.3044 57.3739 131.3352
v  -138.5317 37.3739 131.1089
v  -138.4808 41.8553 131.1596
v  -138.4309 46.2405 131.2092
v  -138.3416 54.0988 131.2981
v  -132.9646 37.3739 136.6530
v  -126.4783 37.3739 143.1126
v  -136.4126 57.3739 133.2192
v  -126.4783 57.3739 143.1126
# 19 vertices

vn 0.0000 0.0000 1.0000
vn 1.0000 0.0000 -0.0000
vn 0.0000 0.0000 -1.0000
vn -0.3139 0.0143 -0.9493
vn 0.0000 -1.0000 -0.0000
vn 0.0000 1.0000 -0.0000
vn -0.7056 0.0000 0.7086
vn -0.7056 -0.0000 0.7086
# 8 vertex normals

vt 1.0000 1.0000 0.0000
vt 0.4623 1.0000 0.0000
vt 0.4623 0.4623 0.0000
vt 0.4623 0.0000 0.0000
vt 1.0000 0.0000 0.0000
vt 0.0000 0.0000 0.0000
vt 0.0000 1.0000 0.0000
vt 1.0000 0.0000 1.0000
vt 0.9871 0.5723 1.0000
vt 0.9775 1.0000 1.0000
vt -0.2861 0.3542 0.1030
vt -0.0028 0.3542 0.1030
vt -0.0081 0.2320 0.1030
vt -0.0152 0.0684 0.1030
vt -0.2882 0.0684 0.1030
vt -0.2877 0.1325 0.1030
vt -0.2873 0.1951 0.1030
vt -0.2865 0.3074 0.1030
vt 0.7594 0.5725 0.0000
vt 0.8390 0.7778 0.0000
vt 0.5798 1.0000 0.0000
vt 0.5377 0.0000 0.0000
vt 0.6668 0.3332 0.0000
vt 0.4333 1.0000 0.0000
vt 0.1643 0.7694 0.0000
vt 0.1913 0.6996 0.0000
vt 0.3332 0.3332 0.0000
vt 0.3495 0.1614 0.0978
vt 0.3507 0.0851 0.0979
vt 0.2171 0.0851 0.0905
vt 0.0615 0.0851 0.0820
vt -0.1553 0.0851 0.0700
vt -0.1553 0.2426 0.0700
vt -0.1553 0.4257 0.0700
vt 0.0615 0.4257 0.0820
vt 0.2999 0.4257 0.0951
vt 0.3453 0.4257 0.0976
vt 0.3462 0.3699 0.0977
vt 0.3483 0.2361 0.0978
# 39 texture coords

o Box043
g Box043
usemtl Cylinder_002_mso
s 8
f 73/82/47 74/83/47 75/84/47 
f 73/82/47 75/84/47 76/85/47 
f 73/82/47 76/85/47 77/86/47 
s 16
f 77/87/48 78/86/48 79/82/48 
f 79/82/48 73/88/48 77/87/48 
usemtl Material_003
s 32
f 78/87/49 80/89/49 81/90/49 
f 78/87/49 81/90/49 82/91/49 
f 78/87/49 82/91/49 79/88/49 
usemtl Material__257
s off
f 83/92/50 82/93/50 81/94/50 
f 80/95/50 84/96/50 85/97/50 
f 80/95/50 85/97/50 86/98/50 
f 81/94/50 80/95/50 86/98/50 
f 81/94/50 86/98/50 87/99/50 
f 83/92/50 81/94/50 87/99/50 
usemtl Material_013
s 2
f 88/100/51 84/101/51 80/102/51 
f 88/100/51 80/102/51 78/88/51 
f 77/87/51 76/103/51 89/104/51 
f 78/88/51 77/87/51 89/104/51 
f 88/100/51 78/88/51 89/104/51 
s 4
f 74/85/52 73/86/52 79/82/52 
f 82/105/52 83/106/52 90/107/52 
f 79/82/52 82/105/52 90/107/52 
f 79/82/52 90/107/52 91/108/52 
f 74/85/52 79/82/52 91/108/52 
usemtl Cylinder_002_mso
s off
f 85/109/53 84/110/53 88/111/53 
f 89/112/53 76/113/53 75/114/53 
f 75/114/53 74/115/53 91/116/53 
f 89/112/53 75/114/53 91/116/53 
f 89/112/53 91/116/53 90/117/53 
f 88/111/54 89/112/54 90/117/54 
f 85/109/54 88/111/54 90/117/54 
f 90/117/54 83/118/54 87/119/54 
f 90/117/53 87/119/53 86/120/53 
f 85/109/53 90/117/53 86/120/53 
# 34 faces

#
# object Box050
#

v  118.3084 36.7391 5.2588
v  118.3084 36.7391 -45.2731
v  129.3042 36.7391 -35.9753
v  138.3084 36.7391 -28.3616
v  138.3084 36.7391 5.2588
v  138.3084 66.7391 5.2588
v  118.3084 66.7391 5.2588
v  138.3084 50.1873 -28.3616
v  138.3084 66.7391 -28.3616
v  118.3084 66.7391 -45.2731
v  118.3084 46.5264 -45.2731
v  129.3042 66.7391 -35.9753
# 12 vertices

vn 0.0000 -1.0000 -0.0000
vn 0.0000 0.0000 1.0000
vn 1.0000 0.0000 -0.0000
vn -1.0000 0.0000 -0.0000
vn 0.0000 1.0000 -0.0000
vn 0.6457 -0.0000 -0.7636
vn 0.6457 0.0000 -0.7636
# 7 vertex normals

vt 1.0000 0.0000 0.0000
vt 1.0000 0.6738 0.0000
vt 0.4502 0.5498 0.0000
vt 0.0000 0.4483 0.0000
vt 0.0000 0.0000 0.0000
vt 1.0000 1.0000 0.0000
vt 0.0000 1.0000 0.0000
vt 0.4483 0.0000 0.0000
vt 0.4483 0.4483 0.0000
vt 0.4483 1.0000 0.0000
vt 0.0000 1.0000 1.0000
vt 0.0000 0.3262 1.0000
vt 0.0000 0.0000 1.0000
vt 0.5498 0.5498 0.0000
vt 0.0000 0.6738 0.0000
vt 1.0000 0.4483 0.0000
vt 0.2140 0.2305 -0.0233
vt 0.2140 0.5000 -0.0233
vt 0.0220 0.5000 -0.0233
vt -0.1352 0.5000 -0.0233
vt -0.1352 0.2793 -0.0233
vt -0.1352 0.1000 -0.0233
vt 0.0220 0.1000 -0.0233
vt 0.2140 0.1000 -0.0233
# 24 texture coords

o Box050
g Box050
usemtl Material_013
s 2
f 92/121/55 93/122/55 94/123/55 
f 92/121/55 94/123/55 95/124/55 
f 92/121/55 95/124/55 96/125/55 
usemtl Cylinder_002_mso
s 8
f 97/126/56 98/127/56 92/125/56 
f 92/125/56 96/121/56 97/126/56 
s 16
f 96/125/57 95/128/57 99/129/57 
f 96/125/57 99/129/57 100/130/57 
f 96/125/57 100/130/57 97/127/57 
usemtl 20___Default
s 64
f 98/126/58 101/131/58 102/132/58 
f 98/126/58 102/132/58 93/133/58 
f 98/126/58 93/133/58 92/121/58 
usemtl Material_013
s 4
f 103/134/59 101/135/59 98/125/59 
f 103/134/59 98/125/59 97/121/59 
f 103/134/59 97/121/59 100/136/59 
usemtl Cylinder_002_mso
s off
f 102/137/60 101/138/60 103/139/60 
f 103/139/61 100/140/61 99/141/61 
f 103/139/61 99/141/61 95/142/61 
f 103/139/61 95/142/61 94/143/61 
f 102/137/61 103/139/61 94/143/61 
f 102/137/61 94/143/61 93/144/61 
# 20 faces

#
# object Box054
#

v  -117.9434 37.1360 -10.3388
v  -137.7872 37.1360 -28.9733
v  -108.6131 37.1360 -53.3617
v  -100.8585 37.1360 -59.8442
v  -99.6963 37.1360 -60.8158
v  -89.0307 37.1360 -41.1278
v  -89.0307 62.4778 -41.1278
v  -89.0307 67.1360 -41.1278
v  -117.9434 67.1360 -10.3388
v  -137.7872 67.1360 -28.9733
v  -137.7872 39.9142 -28.9733
v  -108.6131 67.1360 -53.3617
v  -102.0772 67.1360 -58.8254
v  -99.6963 67.1360 -60.8158
v  -99.6963 66.7083 -60.8158
v  -99.6963 60.7150 -60.8158
v  -99.6963 39.4628 -60.8158
# 17 vertices

vn 0.0000 -1.0000 -0.0000
vn 0.7290 0.0000 0.6845
vn -0.6845 0.0000 0.7290
vn 0.0000 1.0000 -0.0000
vn 0.8793 0.0000 -0.4763
vn 0.8793 -0.0000 -0.4763
vn -0.6414 -0.0000 -0.7672
vn -0.6414 0.0000 -0.7672
# 8 vertex normals

vt 1.0000 0.0000 0.0000
vt 1.0000 0.9074 0.0000
vt 0.2450 0.7550 0.0000
vt 0.0443 0.7145 0.0000
vt 0.0143 0.7084 0.0000
vt 0.1553 0.0000 0.0000
vt 0.0000 0.0000 0.0000
vt 0.8447 0.0000 0.0000
vt 0.8447 0.8447 0.0000
vt 0.8447 1.0000 0.0000
vt 0.0000 1.0000 0.0000
vt 1.0000 1.0000 0.0000
vt 0.0926 1.0000 0.0000
vt 0.0926 0.0926 0.0000
vt 0.0926 0.0000 0.0000
vt 0.7550 0.7550 0.0000
vt 0.0000 0.9074 0.0000
vt 0.9241 0.7208 0.0000
vt 0.9857 0.7084 0.0000
vt 0.2716 0.7500 -0.2108
vt -0.1762 0.7500 -0.2108
vt -0.1762 0.6568 -0.2108
vt 0.2716 0.7414 -0.2108
vt 0.2716 0.6216 -0.2108
vt 0.2716 0.1965 -0.2108
vt -0.1762 0.1500 -0.2108
vt 0.2716 0.1500 -0.2108
vt 0.4077 0.7608 0.0748
vt 0.4706 0.7608 0.0743
vt 0.4706 0.7522 0.0743
vt 0.4706 0.1994 0.0743
vt 0.4706 0.1522 0.0743
vt 0.4399 0.1522 0.0746
vt 0.4706 0.6306 0.0743
vt 0.2348 0.1522 0.0762
vt 0.2348 0.7608 0.0762
vt -0.5366 0.1522 0.0825
vt -0.5366 0.2085 0.0825
vt -0.5366 0.7608 0.0825
# 39 texture coords

o Box054
g Box054
usemtl Material_013
s 2
f 104/145/62 105/146/62 106/147/62 
f 104/145/62 106/147/62 107/148/62 
f 107/148/62 108/149/62 109/150/62 
f 104/145/62 107/148/62 109/150/62 
usemtl Material_012
s 8
f 104/151/63 109/152/63 110/153/63 
f 104/151/63 110/153/63 111/154/63 
f 104/151/63 111/154/63 112/155/63 
usemtl Cylinder_002_mso
s 64
f 112/156/64 113/157/64 114/158/64 
f 112/156/64 114/158/64 105/159/64 
f 112/156/64 105/159/64 104/145/64 
usemtl Material_013
s 4
f 115/160/65 113/161/65 112/151/65 
f 116/162/65 115/160/65 112/151/65 
f 116/162/65 112/151/65 111/152/65 
f 116/162/65 111/152/65 117/163/65 
usemtl Cylinder_002_mso
s off
f 117/164/66 111/165/66 110/166/66 
f 118/167/67 117/164/67 110/166/67 
f 119/168/66 118/167/66 110/166/66 
f 120/169/67 119/168/67 110/166/67 
f 120/169/66 110/166/66 109/170/66 
f 120/169/66 109/170/66 108/171/66 
usemtl Material_012
f 116/172/68 117/173/68 118/174/68 
f 120/175/69 108/176/69 107/177/69 
f 119/178/68 120/175/68 107/177/68 
f 118/174/69 119/178/69 107/177/69 
f 116/172/69 118/174/69 107/177/69 
f 116/172/69 107/177/69 106/179/69 
f 115/180/69 116/172/69 106/179/69 
f 106/179/69 105/181/69 114/182/69 
f 115/180/69 106/179/69 114/182/69 
f 115/180/69 114/182/69 113/183/69 
# 30 faces

#
# object Box057
#

v  117.6909 37.3649 35.4531
v  117.6909 37.3649 5.4531
v  137.6909 37.3649 5.4531
v  137.6909 37.3649 35.4531
v  117.6909 67.3649 35.4531
v  137.6909 67.3649 35.4531
v  137.6909 67.3649 5.4531
v  117.6909 67.3649 5.4531
# 8 vertices

vn 0.0000 -1.0000 -0.0000
vn 0.0000 1.0000 -0.0000
vn 0.0000 0.0000 1.0000
vn 1.0000 0.0000 -0.0000
vn 0.0000 0.0000 -1.0000
vn -1.0000 0.0000 -0.0000
# 6 vertex normals

vt 1.0000 0.0000 0.0000
vt 1.0000 1.0000 0.0000
vt 0.0000 1.0000 0.0000
vt 0.0000 0.0000 0.0000
vt 0.0000 0.0000 1.0000
vt 0.0000 1.0000 1.0000
# 6 texture coords

o Box057
g Box057
usemtl Material_013
s 2
f 121/184/70 122/185/70 123/186/70 
f 123/186/70 124/187/70 121/184/70 
s 4
f 125/187/71 126/184/71 127/185/71 
f 127/185/71 128/186/71 125/187/71 
usemtl Cylinder_002_mso
s 8
f 121/187/72 124/184/72 126/185/72 
f 126/185/72 125/186/72 121/187/72 
s 16
f 124/187/73 123/184/73 127/185/73 
f 127/185/73 126/186/73 124/187/73 
s 32
f 123/187/74 122/184/74 128/185/74 
f 128/185/74 127/186/74 123/187/74 
usemtl Material__372
s 64
f 122/188/75 121/184/75 125/185/75 
f 125/185/75 128/189/75 122/188/75 
# 12 faces

#
# object Box058
#

v  117.6909 37.3649 65.6095
v  117.6909 37.3649 35.6095
v  137.6909 37.3649 35.6095
v  137.6909 37.3649 65.6095
v  117.6909 67.3649 65.6095
v  137.6909 67.3649 65.6095
v  137.6909 67.3649 35.6095
v  117.6909 67.3649 35.6095
# 8 vertices

vn 0.0000 -1.0000 -0.0000
vn 0.0000 1.0000 -0.0000
vn 0.0000 0.0000 1.0000
vn 1.0000 0.0000 -0.0000
vn 0.0000 0.0000 -1.0000
vn -1.0000 0.0000 -0.0000
# 6 vertex normals

vt 1.0000 0.0000 0.0000
vt 1.0000 1.0000 0.0000
vt 0.0000 1.0000 0.0000
vt 0.0000 0.0000 0.0000
vt 0.0000 0.0000 1.0000
vt 0.0000 1.0000 1.0000
# 6 texture coords

o Box058
g Box058
usemtl Material_013
s 2
f 129/190/76 130/191/76 131/192/76 
f 131/192/76 132/193/76 129/190/76 
s 4
f 133/193/77 134/190/77 135/191/77 
f 135/191/77 136/192/77 133/193/77 
usemtl Cylinder_002_mso
s 8
f 129/193/78 132/190/78 134/191/78 
f 134/191/78 133/192/78 129/193/78 
s 16
f 132/193/79 131/190/79 135/191/79 
f 135/191/79 134/192/79 132/193/79 
s 32
f 131/193/80 130/190/80 136/191/80 
f 136/191/80 135/192/80 131/193/80 
usemtl Material__384
s 64
f 130/194/81 129/190/81 133/191/81 
f 133/191/81 136/195/81 130/194/81 
# 12 faces

#
# object Box059
#

v  117.6909 37.3649 95.6645
v  117.6909 37.3649 65.6645
v  137.6909 37.3649 65.6645
v  137.6909 37.3649 95.6645
v  117.6909 67.3649 95.6645
v  137.6909 67.3649 95.6645
v  137.6909 67.3649 65.6645
v  117.6909 67.3649 65.6645
# 8 vertices

vn 0.0000 -1.0000 -0.0000
vn 0.0000 1.0000 -0.0000
vn 0.0000 0.0000 1.0000
vn 1.0000 0.0000 -0.0000
vn 0.0000 0.0000 -1.0000
vn -1.0000 0.0000 -0.0000
# 6 vertex normals

vt 1.0000 0.0000 0.0000
vt 1.0000 1.0000 0.0000
vt 0.0000 1.0000 0.0000
vt 0.0000 0.0000 0.0000
vt 0.0000 0.0000 1.0000
vt 0.0000 1.0000 1.0000
# 6 texture coords

o Box059
g Box059
usemtl Material_013
s 2
f 137/196/82 138/197/82 139/198/82 
f 139/198/82 140/199/82 137/196/82 
s 4
f 141/199/83 142/196/83 143/197/83 
f 143/197/83 144/198/83 141/199/83 
usemtl Cylinder_002_mso
s 8
f 137/199/84 140/196/84 142/197/84 
f 142/197/84 141/198/84 137/199/84 
s 16
f 140/199/85 139/196/85 143/197/85 
f 143/197/85 142/198/85 140/199/85 
s 32
f 139/199/86 138/196/86 144/197/86 
f 144/197/86 143/198/86 139/199/86 
usemtl Material__396
s 64
f 138/200/87 137/196/87 141/197/87 
f 141/197/87 144/201/87 138/200/87 
# 12 faces

