# 3ds Max Wavefront OBJ Exporter v0.99 - (c)2007 guruware
# File Created: 10.05.2024 15:09:45

mtllib Cascada.mtl

#
# object Tube001
#

v  27.8781 3.1146 -60.2789
v  27.8781 10.1146 -60.2789
v  27.8781 10.1146 -55.4068
v  27.8781 17.1146 -60.2789
v  27.8781 24.1146 -60.2789
v  27.8781 24.1146 -55.4068
v  27.8781 31.1146 -60.2789
v  27.8781 38.1146 -60.2789
v  27.8781 38.1146 -55.4068
v  27.8781 45.1146 -60.2789
v  27.8781 52.1146 -60.2789
v  27.8781 52.1146 -55.4068
v  27.8781 59.1146 -60.2789
v  27.8781 66.1146 -60.2789
v  27.8781 66.1146 -55.4068
v  25.9249 66.1146 -60.2789
v  24.2296 66.1146 -60.2789
v  24.2296 66.1146 -56.0501
v  24.2296 59.1146 -60.2789
v  24.2296 52.1146 -60.2789
v  24.2296 52.1146 -56.0501
v  24.2296 45.1146 -60.2789
v  24.2296 38.1146 -60.2789
v  24.2296 38.1146 -56.0501
v  24.2296 31.1146 -60.2789
v  24.2296 24.1146 -60.2789
v  24.2296 24.1146 -56.0501
v  24.2296 17.1146 -60.2789
v  24.2296 10.1146 -60.2789
v  24.2296 10.1146 -56.0501
v  24.2296 3.1146 -60.2789
v  24.2296 -3.8854 -60.2789
v  24.2296 -3.8854 -56.0501
v  25.9249 -3.8854 -60.2789
v  27.8781 -3.8854 -60.2789
v  27.8781 -3.8854 -55.4068
v  24.5454 10.1146 -46.2502
v  24.5454 -3.8854 -46.2502
v  24.5454 24.1146 -46.2502
v  24.5454 38.1146 -46.2502
v  24.5454 52.1146 -46.2502
v  24.5454 66.1146 -46.2502
v  21.3369 66.1146 -48.1026
v  21.3369 52.1146 -48.1026
v  21.3369 38.1146 -48.1026
v  21.3369 24.1146 -48.1026
v  21.3369 10.1146 -48.1026
v  21.3369 -3.8854 -48.1026
v  18.2819 10.1146 -38.7856
v  18.2819 -3.8854 -38.7856
v  18.2819 24.1146 -38.7856
v  18.2819 38.1146 -38.7856
v  18.2819 52.1146 -38.7856
v  18.2819 66.1146 -38.7856
v  15.9005 66.1146 -41.6237
v  15.9005 52.1146 -41.6237
v  15.9005 38.1146 -41.6237
v  15.9005 24.1146 -41.6237
v  15.9005 10.1146 -41.6237
v  15.9005 -3.8854 -41.6237
v  9.8431 10.1146 -33.9135
v  9.8431 -3.8854 -33.9135
v  9.8431 24.1146 -33.9135
v  9.8431 38.1146 -33.9135
v  9.8431 52.1146 -33.9135
v  9.8431 66.1146 -33.9135
v  8.5760 66.1146 -37.3949
v  8.5760 52.1146 -37.3949
v  8.5760 38.1146 -37.3949
v  8.5760 24.1146 -37.3949
v  8.5760 10.1146 -37.3949
v  8.5760 -3.8854 -37.3949
v  0.2469 10.1146 -32.2214
v  0.2469 -3.8854 -32.2214
v  0.2469 24.1146 -32.2214
v  0.2469 38.1146 -32.2214
v  0.2469 52.1146 -32.2214
v  0.2469 66.1146 -32.2214
v  0.2469 66.1146 -35.9263
v  0.2469 52.1146 -35.9263
v  0.2469 38.1146 -35.9263
v  0.2469 24.1146 -35.9263
v  0.2469 10.1146 -35.9263
v  0.2469 -3.8854 -35.9263
v  -9.3493 10.1146 -33.9135
v  -9.3493 -3.8854 -33.9135
v  -9.3493 24.1146 -33.9135
v  -9.3493 38.1146 -33.9135
v  -9.3493 52.1146 -33.9135
v  -9.3493 66.1146 -33.9135
v  -8.0822 66.1146 -37.3949
v  -8.0822 52.1146 -37.3949
v  -8.0822 38.1146 -37.3949
v  -8.0822 24.1146 -37.3949
v  -8.0822 10.1146 -37.3949
v  -8.0822 -3.8854 -37.3949
v  -17.7881 10.1146 -38.7856
v  -17.7881 -3.8854 -38.7856
v  -17.7881 24.1146 -38.7856
v  -17.7881 38.1146 -38.7856
v  -17.7881 52.1146 -38.7856
v  -17.7881 66.1146 -38.7856
v  -15.4067 66.1146 -41.6237
v  -15.4067 52.1146 -41.6237
v  -15.4067 38.1146 -41.6237
v  -15.4067 24.1146 -41.6237
v  -15.4067 10.1146 -41.6237
v  -15.4067 -3.8854 -41.6237
v  -24.0516 10.1146 -46.2502
v  -24.0516 -3.8854 -46.2502
v  -24.0516 24.1146 -46.2502
v  -24.0516 38.1146 -46.2502
v  -24.0516 52.1146 -46.2502
v  -24.0516 66.1146 -46.2502
v  -20.8431 66.1146 -48.1026
v  -20.8431 52.1146 -48.1026
v  -20.8431 38.1146 -48.1026
v  -20.8431 24.1146 -48.1026
v  -20.8431 10.1146 -48.1026
v  -20.8431 -3.8854 -48.1026
v  -27.3843 10.1146 -55.4068
v  -27.3843 -3.8854 -55.4068
v  -27.3843 24.1146 -55.4068
v  -27.3843 38.1146 -55.4068
v  -27.3843 52.1146 -55.4068
v  -27.3843 66.1146 -55.4068
v  -23.7358 66.1146 -56.0501
v  -23.7358 52.1146 -56.0501
v  -23.7358 38.1146 -56.0501
v  -23.7358 24.1146 -56.0501
v  -23.7358 10.1146 -56.0501
v  -23.7358 -3.8854 -56.0501
v  -27.3843 3.1146 -60.2789
v  -27.3843 -3.8854 -60.2789
v  -27.3843 17.1146 -60.2789
v  -27.3843 10.1146 -60.2789
v  -27.3843 31.1146 -60.2789
v  -27.3843 24.1146 -60.2789
v  -27.3843 45.1146 -60.2789
v  -27.3843 38.1146 -60.2789
v  -27.3843 59.1146 -60.2789
v  -27.3843 52.1146 -60.2789
v  -25.4311 66.1146 -60.2789
v  -27.3843 66.1146 -60.2789
v  -23.7358 59.1146 -60.2789
v  -23.7358 66.1146 -60.2789
v  -23.7358 45.1146 -60.2789
v  -23.7358 52.1146 -60.2789
v  -23.7358 31.1146 -60.2789
v  -23.7358 38.1146 -60.2789
v  -23.7358 17.1146 -60.2789
v  -23.7358 24.1146 -60.2789
v  -23.7358 3.1146 -60.2789
v  -23.7358 10.1146 -60.2789
v  -25.4311 -3.8854 -60.2789
v  -23.7358 -3.8854 -60.2789
# 156 vertices

vn 1.0000 0.0000 -0.0000
vn 0.9848 0.0000 0.1736
vn 0.0000 1.0000 -0.0000
vn -1.0000 0.0000 -0.0000
vn -0.9848 0.0000 -0.1736
vn 0.0000 -1.0000 -0.0000
vn 0.8660 0.0000 0.5000
vn -0.8660 0.0000 -0.5000
vn 0.6428 0.0000 0.7660
vn -0.6428 0.0000 -0.7660
vn 0.3420 0.0000 0.9397
vn -0.3420 0.0000 -0.9397
vn -0.0000 0.0000 1.0000
vn 0.0000 0.0000 -1.0000
vn -0.3420 0.0000 0.9397
vn 0.3420 0.0000 -0.9397
vn -0.6428 0.0000 0.7660
vn 0.6428 0.0000 -0.7660
vn -0.8660 0.0000 0.5000
vn 0.8660 0.0000 -0.5000
vn -0.9848 0.0000 0.1736
vn 0.9848 0.0000 -0.1736
# 22 vertex normals

vt 1.6495 0.2661 1.6344
vt 1.6495 0.3104 1.4649
vt 1.6019 0.3011 1.4046
vt 1.6495 0.3649 1.3307
vt 1.6495 0.4293 1.2433
vt 1.6019 0.4249 1.1716
vt 1.6495 0.5000 1.2127
vt 1.6495 0.5707 1.2433
vt 1.6019 0.5751 1.1716
vt 1.6495 0.6351 1.3307
vt 1.6495 0.6896 1.4649
vt 1.6019 0.6989 1.4046
vt 1.6495 0.7339 1.6344
vt 1.6495 0.7693 1.8294
vt 1.6019 0.7792 1.7815
vt 1.6592 0.7784 1.7853
vt 1.6685 0.7864 1.7488
vt 1.6235 0.7972 1.7041
vt 1.6685 0.7512 1.5437
vt 1.6685 0.7060 1.3629
vt 1.6235 0.7168 1.3051
vt 1.6685 0.6486 1.2175
vt 1.6685 0.5786 1.1213
vt 1.6235 0.5840 1.0502
vt 1.6685 0.5000 1.0873
vt 1.6685 0.4214 1.1213
vt 1.6235 0.4160 1.0502
vt 1.6685 0.3514 1.2175
vt 1.6685 0.2940 1.3629
vt 1.6235 0.2832 1.3051
vt 1.6685 0.2488 1.5437
vt 1.6685 0.2136 1.7488
vt 1.6235 0.2028 1.7041
vt 1.6592 0.2216 1.7853
vt 1.6495 0.2307 1.8294
vt 1.6019 0.2208 1.7815
vt 1.5000 0.2731 1.2568
vt 1.5000 0.1932 1.6674
vt 1.5000 0.4107 0.9896
vt 1.5000 0.5893 0.9896
vt 1.5000 0.7269 1.2568
vt 1.5000 0.8068 1.6674
vt 1.5279 0.8268 1.6008
vt 1.5279 0.7487 1.1670
vt 1.5279 0.6016 0.8726
vt 1.5279 0.3984 0.8726
vt 1.5279 0.2513 1.1670
vt 1.5279 0.1732 1.6008
vt 1.3751 0.2384 1.1220
vt 1.3751 0.1619 1.5683
vt 1.3751 0.3904 0.8115
vt 1.3751 0.6096 0.8115
vt 1.3751 0.7616 1.1220
vt 1.3751 0.8381 1.5683
vt 1.4085 0.8611 1.5113
vt 1.4085 0.7897 1.0409
vt 1.4085 0.6290 0.6950
vt 1.4085 0.3710 0.6950
vt 1.4085 0.2103 1.0409
vt 1.4085 0.1389 1.5113
vt 1.2104 0.2037 1.0244
vt 1.2104 0.1337 1.5000
vt 1.2104 0.3660 0.6702
vt 1.2104 0.6340 0.6702
vt 1.2104 0.7963 1.0244
vt 1.2104 0.8663 1.5000
vt 1.2403 0.8936 1.4500
vt 1.2403 0.8330 0.9496
vt 1.2403 0.6663 0.5490
vt 1.2403 0.3337 0.5490
vt 1.2403 0.1670 0.9496
vt 1.2403 0.1064 1.4500
vt 1.0000 0.1875 0.9883
vt 1.0000 0.1213 1.4756
vt 1.0000 0.3527 0.6135
vt 1.0000 0.6473 0.6135
vt 1.0000 0.8125 0.9883
vt 1.0000 0.8787 1.4756
vt 1.0000 0.9087 1.4280
vt 1.0000 0.8546 0.9158
vt 1.0000 0.6897 0.4881
vt 1.0000 0.3103 0.4881
vt 1.0000 0.1454 0.9158
vt 1.0000 0.0913 1.4280
vt 0.7896 0.2037 1.0244
vt 0.7896 0.1337 1.5000
vt 0.7896 0.3660 0.6702
vt 0.7896 0.6340 0.6702
vt 0.7896 0.7963 1.0244
vt 0.7896 0.8663 1.5000
vt 0.7597 0.8936 1.4500
vt 0.7597 0.8330 0.9496
vt 0.7597 0.6663 0.5490
vt 0.7597 0.3337 0.5490
vt 0.7597 0.1670 0.9496
vt 0.7597 0.1064 1.4500
vt 0.6249 0.2384 1.1220
vt 0.6249 0.1619 1.5683
vt 0.6249 0.3904 0.8115
vt 0.6249 0.6096 0.8115
vt 0.6249 0.7616 1.1220
vt 0.6249 0.8381 1.5683
vt 0.5915 0.8611 1.5113
vt 0.5915 0.7897 1.0409
vt 0.5915 0.6290 0.6950
vt 0.5915 0.3710 0.6950
vt 0.5915 0.2103 1.0409
vt 0.5915 0.1389 1.5113
vt 0.5000 0.2731 1.2568
vt 0.5000 0.1932 1.6674
vt 0.5000 0.4107 0.9896
vt 0.5000 0.5893 0.9896
vt 0.5000 0.7269 1.2568
vt 0.5000 0.8068 1.6674
vt 0.4721 0.8268 1.6008
vt 0.4721 0.7487 1.1670
vt 0.4721 0.6016 0.8726
vt 0.4721 0.3984 0.8726
vt 0.4721 0.2513 1.1670
vt 0.4721 0.1732 1.6008
vt 0.3981 0.3011 1.4046
vt 0.3981 0.2208 1.7815
vt 0.3981 0.4249 1.1716
vt 0.3981 0.5751 1.1716
vt 0.3981 0.6989 1.4046
vt 0.3981 0.7792 1.7815
vt 0.3765 0.7972 1.7041
vt 0.3765 0.7168 1.3051
vt 0.3765 0.5840 1.0502
vt 0.3765 0.4160 1.0502
vt 0.3765 0.2832 1.3051
vt 0.3765 0.2028 1.7041
vt 0.3505 0.2661 1.6344
vt 0.3505 0.2307 1.8294
vt 0.3505 0.3649 1.3307
vt 0.3505 0.3104 1.4649
vt 0.3505 0.5000 1.2127
vt 0.3505 0.4293 1.2433
vt 0.3505 0.6351 1.3307
vt 0.3505 0.5707 1.2433
vt 0.3505 0.7339 1.6344
vt 0.3505 0.6896 1.4649
vt 0.3408 0.7784 1.7853
vt 0.3505 0.7693 1.8294
vt 0.3315 0.7512 1.5437
vt 0.3315 0.7864 1.7488
vt 0.3315 0.6486 1.2175
vt 0.3315 0.7060 1.3629
vt 0.3315 0.5000 1.0873
vt 0.3315 0.5786 1.1213
vt 0.3315 0.3514 1.2175
vt 0.3315 0.4214 1.1213
vt 0.3315 0.2488 1.5437
vt 0.3315 0.2940 1.3629
vt 0.3408 0.2216 1.7853
vt 0.3315 0.2136 1.7488
# 156 texture coords

o Tube001
g Tube001
usemtl Material_015
s 2
f 1/1/1 2/2/1 3/3/2 
f 4/4/1 5/5/1 6/6/2 
f 7/7/1 8/8/1 9/9/2 
f 10/10/1 11/11/1 12/12/2 
f 13/13/1 14/14/1 15/15/2 
s 4
f 16/16/3 17/17/3 18/18/3 
s 2
f 19/19/4 20/20/4 21/21/5 
f 22/22/4 23/23/4 24/24/5 
f 25/25/4 26/26/4 27/27/5 
f 28/28/4 29/29/4 30/30/5 
f 31/31/4 32/32/4 33/33/5 
s 4
f 34/34/6 35/35/6 36/36/6 
s 2
f 36/36/2 37/37/7 38/38/7 
f 36/36/2 3/3/2 37/37/7 
f 3/3/2 39/39/7 37/37/7 
f 3/3/2 6/6/2 39/39/7 
f 6/6/2 40/40/7 39/39/7 
f 6/6/2 9/9/2 40/40/7 
f 9/9/2 41/41/7 40/40/7 
f 9/9/2 12/12/2 41/41/7 
f 12/12/2 42/42/7 41/41/7 
f 12/12/2 15/15/2 42/42/7 
s 4
f 15/15/3 43/43/3 42/42/3 
f 15/15/3 18/18/3 43/43/3 
s 2
f 18/18/5 44/44/8 43/43/8 
f 18/18/5 21/21/5 44/44/8 
f 21/21/5 45/45/8 44/44/8 
f 21/21/5 24/24/5 45/45/8 
f 24/24/5 46/46/8 45/45/8 
f 24/24/5 27/27/5 46/46/8 
f 27/27/5 47/47/8 46/46/8 
f 27/27/5 30/30/5 47/47/8 
f 30/30/5 48/48/8 47/47/8 
f 30/30/5 33/33/5 48/48/8 
s 4
f 33/33/6 38/38/6 48/48/6 
f 33/33/6 36/36/6 38/38/6 
s 2
f 38/38/7 49/49/9 50/50/9 
f 38/38/7 37/37/7 49/49/9 
f 37/37/7 51/51/9 49/49/9 
f 37/37/7 39/39/7 51/51/9 
f 39/39/7 52/52/9 51/51/9 
f 39/39/7 40/40/7 52/52/9 
f 40/40/7 53/53/9 52/52/9 
f 40/40/7 41/41/7 53/53/9 
f 41/41/7 54/54/9 53/53/9 
f 41/41/7 42/42/7 54/54/9 
s 4
f 42/42/3 55/55/3 54/54/3 
f 42/42/3 43/43/3 55/55/3 
s 2
f 43/43/8 56/56/10 55/55/10 
f 43/43/8 44/44/8 56/56/10 
f 44/44/8 57/57/10 56/56/10 
f 44/44/8 45/45/8 57/57/10 
f 45/45/8 58/58/10 57/57/10 
f 45/45/8 46/46/8 58/58/10 
f 46/46/8 59/59/10 58/58/10 
f 46/46/8 47/47/8 59/59/10 
f 47/47/8 60/60/10 59/59/10 
f 47/47/8 48/48/8 60/60/10 
s 4
f 48/48/6 50/50/6 60/60/6 
f 48/48/6 38/38/6 50/50/6 
s 2
f 50/50/9 61/61/11 62/62/11 
f 50/50/9 49/49/9 61/61/11 
f 49/49/9 63/63/11 61/61/11 
f 49/49/9 51/51/9 63/63/11 
f 51/51/9 64/64/11 63/63/11 
f 51/51/9 52/52/9 64/64/11 
f 52/52/9 65/65/11 64/64/11 
f 52/52/9 53/53/9 65/65/11 
f 53/53/9 66/66/11 65/65/11 
f 53/53/9 54/54/9 66/66/11 
s 4
f 54/54/3 67/67/3 66/66/3 
f 54/54/3 55/55/3 67/67/3 
s 2
f 55/55/10 68/68/12 67/67/12 
f 55/55/10 56/56/10 68/68/12 
f 56/56/10 69/69/12 68/68/12 
f 56/56/10 57/57/10 69/69/12 
f 57/57/10 70/70/12 69/69/12 
f 57/57/10 58/58/10 70/70/12 
f 58/58/10 71/71/12 70/70/12 
f 58/58/10 59/59/10 71/71/12 
f 59/59/10 72/72/12 71/71/12 
f 59/59/10 60/60/10 72/72/12 
s 4
f 60/60/6 62/62/6 72/72/6 
f 60/60/6 50/50/6 62/62/6 
s 2
f 62/62/11 73/73/13 74/74/13 
f 62/62/11 61/61/11 73/73/13 
f 61/61/11 75/75/13 73/73/13 
f 61/61/11 63/63/11 75/75/13 
f 63/63/11 76/76/13 75/75/13 
f 63/63/11 64/64/11 76/76/13 
f 64/64/11 77/77/13 76/76/13 
f 64/64/11 65/65/11 77/77/13 
f 65/65/11 78/78/13 77/77/13 
f 65/65/11 66/66/11 78/78/13 
s 4
f 66/66/3 79/79/3 78/78/3 
f 66/66/3 67/67/3 79/79/3 
s 2
f 67/67/12 80/80/14 79/79/14 
f 67/67/12 68/68/12 80/80/14 
f 68/68/12 81/81/14 80/80/14 
f 68/68/12 69/69/12 81/81/14 
f 69/69/12 82/82/14 81/81/14 
f 69/69/12 70/70/12 82/82/14 
f 70/70/12 83/83/14 82/82/14 
f 70/70/12 71/71/12 83/83/14 
f 71/71/12 84/84/14 83/83/14 
f 71/71/12 72/72/12 84/84/14 
s 4
f 72/72/6 74/74/6 84/84/6 
f 72/72/6 62/62/6 74/74/6 
s 2
f 74/74/13 85/85/15 86/86/15 
f 74/74/13 73/73/13 85/85/15 
f 73/73/13 87/87/15 85/85/15 
f 73/73/13 75/75/13 87/87/15 
f 75/75/13 88/88/15 87/87/15 
f 75/75/13 76/76/13 88/88/15 
f 76/76/13 89/89/15 88/88/15 
f 76/76/13 77/77/13 89/89/15 
f 77/77/13 90/90/15 89/89/15 
f 77/77/13 78/78/13 90/90/15 
s 4
f 78/78/3 91/91/3 90/90/3 
f 78/78/3 79/79/3 91/91/3 
s 2
f 79/79/14 92/92/16 91/91/16 
f 79/79/14 80/80/14 92/92/16 
f 80/80/14 93/93/16 92/92/16 
f 80/80/14 81/81/14 93/93/16 
f 81/81/14 94/94/16 93/93/16 
f 81/81/14 82/82/14 94/94/16 
f 82/82/14 95/95/16 94/94/16 
f 82/82/14 83/83/14 95/95/16 
f 83/83/14 96/96/16 95/95/16 
f 83/83/14 84/84/14 96/96/16 
s 4
f 84/84/6 86/86/6 96/96/6 
f 84/84/6 74/74/6 86/86/6 
s 2
f 86/86/15 97/97/17 98/98/17 
f 86/86/15 85/85/15 97/97/17 
f 85/85/15 99/99/17 97/97/17 
f 85/85/15 87/87/15 99/99/17 
f 87/87/15 100/100/17 99/99/17 
f 87/87/15 88/88/15 100/100/17 
f 88/88/15 101/101/17 100/100/17 
f 88/88/15 89/89/15 101/101/17 
f 89/89/15 102/102/17 101/101/17 
f 89/89/15 90/90/15 102/102/17 
s 4
f 90/90/3 103/103/3 102/102/3 
f 90/90/3 91/91/3 103/103/3 
s 2
f 91/91/16 104/104/18 103/103/18 
f 91/91/16 92/92/16 104/104/18 
f 92/92/16 105/105/18 104/104/18 
f 92/92/16 93/93/16 105/105/18 
f 93/93/16 106/106/18 105/105/18 
f 93/93/16 94/94/16 106/106/18 
f 94/94/16 107/107/18 106/106/18 
f 94/94/16 95/95/16 107/107/18 
f 95/95/16 108/108/18 107/107/18 
f 95/95/16 96/96/16 108/108/18 
s 4
f 96/96/6 98/98/6 108/108/6 
f 96/96/6 86/86/6 98/98/6 
s 2
f 98/98/17 109/109/19 110/110/19 
f 98/98/17 97/97/17 109/109/19 
f 97/97/17 111/111/19 109/109/19 
f 97/97/17 99/99/17 111/111/19 
f 99/99/17 112/112/19 111/111/19 
f 99/99/17 100/100/17 112/112/19 
f 100/100/17 113/113/19 112/112/19 
f 100/100/17 101/101/17 113/113/19 
f 101/101/17 114/114/19 113/113/19 
f 101/101/17 102/102/17 114/114/19 
s 4
f 102/102/3 115/115/3 114/114/3 
f 102/102/3 103/103/3 115/115/3 
s 2
f 103/103/18 116/116/20 115/115/20 
f 103/103/18 104/104/18 116/116/20 
f 104/104/18 117/117/20 116/116/20 
f 104/104/18 105/105/18 117/117/20 
f 105/105/18 118/118/20 117/117/20 
f 105/105/18 106/106/18 118/118/20 
f 106/106/18 119/119/20 118/118/20 
f 106/106/18 107/107/18 119/119/20 
f 107/107/18 120/120/20 119/119/20 
f 107/107/18 108/108/18 120/120/20 
s 4
f 108/108/6 110/110/6 120/120/6 
f 108/108/6 98/98/6 110/110/6 
s 2
f 110/110/19 121/121/21 122/122/21 
f 110/110/19 109/109/19 121/121/21 
f 109/109/19 123/123/21 121/121/21 
f 109/109/19 111/111/19 123/123/21 
f 111/111/19 124/124/21 123/123/21 
f 111/111/19 112/112/19 124/124/21 
f 112/112/19 125/125/21 124/124/21 
f 112/112/19 113/113/19 125/125/21 
f 113/113/19 126/126/21 125/125/21 
f 113/113/19 114/114/19 126/126/21 
s 4
f 114/114/3 127/127/3 126/126/3 
f 114/114/3 115/115/3 127/127/3 
s 2
f 115/115/20 128/128/22 127/127/22 
f 115/115/20 116/116/20 128/128/22 
f 116/116/20 129/129/22 128/128/22 
f 116/116/20 117/117/20 129/129/22 
f 117/117/20 130/130/22 129/129/22 
f 117/117/20 118/118/20 130/130/22 
f 118/118/20 131/131/22 130/130/22 
f 118/118/20 119/119/20 131/131/22 
f 119/119/20 132/132/22 131/131/22 
f 119/119/20 120/120/20 132/132/22 
s 4
f 120/120/6 122/122/6 132/132/6 
f 120/120/6 110/110/6 122/122/6 
s 2
f 122/122/21 133/133/4 134/134/4 
f 121/121/21 135/135/4 136/136/4 
f 123/123/21 137/137/4 138/138/4 
f 124/124/21 139/139/4 140/140/4 
f 125/125/21 141/141/4 142/142/4 
s 4
f 126/126/3 143/143/3 144/144/3 
s 2
f 127/127/22 145/145/1 146/146/1 
f 128/128/22 147/147/1 148/148/1 
f 129/129/22 149/149/1 150/150/1 
f 130/130/22 151/151/1 152/152/1 
f 131/131/22 153/153/1 154/154/1 
s 4
f 132/132/6 155/155/6 156/156/6 
s 2
f 35/35/1 1/1/1 36/36/2 
f 1/1/1 3/3/2 36/36/2 
f 2/2/1 4/4/1 3/3/2 
f 4/4/1 6/6/2 3/3/2 
f 5/5/1 7/7/1 6/6/2 
f 7/7/1 9/9/2 6/6/2 
f 8/8/1 10/10/1 9/9/2 
f 10/10/1 12/12/2 9/9/2 
f 11/11/1 13/13/1 12/12/2 
f 13/13/1 15/15/2 12/12/2 
s 4
f 14/14/3 16/16/3 15/15/3 
f 16/16/3 18/18/3 15/15/3 
s 2
f 17/17/4 19/19/4 18/18/5 
f 19/19/4 21/21/5 18/18/5 
f 20/20/4 22/22/4 21/21/5 
f 22/22/4 24/24/5 21/21/5 
f 23/23/4 25/25/4 24/24/5 
f 25/25/4 27/27/5 24/24/5 
f 26/26/4 28/28/4 27/27/5 
f 28/28/4 30/30/5 27/27/5 
f 29/29/4 31/31/4 30/30/5 
f 31/31/4 33/33/5 30/30/5 
s 4
f 32/32/6 34/34/6 33/33/6 
f 34/34/6 36/36/6 33/33/6 
s 2
f 133/133/4 121/121/21 136/136/4 
f 122/122/21 121/121/21 133/133/4 
f 135/135/4 123/123/21 138/138/4 
f 121/121/21 123/123/21 135/135/4 
f 137/137/4 124/124/21 140/140/4 
f 123/123/21 124/124/21 137/137/4 
f 139/139/4 125/125/21 142/142/4 
f 124/124/21 125/125/21 139/139/4 
f 141/141/4 126/126/21 144/144/4 
f 125/125/21 126/126/21 141/141/4 
s 4
f 143/143/3 127/127/3 146/146/3 
f 126/126/3 127/127/3 143/143/3 
s 2
f 145/145/1 128/128/22 148/148/1 
f 127/127/22 128/128/22 145/145/1 
f 147/147/1 129/129/22 150/150/1 
f 128/128/22 129/129/22 147/147/1 
f 149/149/1 130/130/22 152/152/1 
f 129/129/22 130/130/22 149/149/1 
f 151/151/1 131/131/22 154/154/1 
f 130/130/22 131/131/22 151/151/1 
f 153/153/1 132/132/22 156/156/1 
f 131/131/22 132/132/22 153/153/1 
s 4
f 155/155/6 122/122/6 134/134/6 
f 132/132/6 122/122/6 155/155/6 
# 264 faces

