# 3ds Max Wavefront OBJ Exporter v0.99 - (c)2007 guruware
# File Created: 02.04.2024 12:34:56

mtllib cuboCastro.mtl

#
# object Box001
#

v  -10.1011 0.0000 9.6428
v  -10.1011 0.0000 0.2506
v  -0.1198 0.0000 0.2506
v  -0.1198 0.0000 9.6428
v  -10.1011 5.0164 9.6428
v  -0.1198 5.0164 9.6428
v  -0.1198 5.0164 0.2506
v  -10.1011 5.0164 0.2506
# 8 vertices

vn 0.0000 -1.0000 -0.0000
vn 0.0000 1.0000 -0.0000
vn 0.0000 0.0000 1.0000
vn 1.0000 0.0000 -0.0000
vn 0.0000 0.0000 -1.0000
vn -1.0000 0.0000 -0.0000
# 6 vertex normals

vt 0.0009 0.9696 0.5000
vt 0.0009 0.0304 0.5000
vt 0.9991 0.0304 0.5000
vt 0.9991 0.9696 0.5000
vt 0.0000 0.0000 0.0000
vt 1.0000 0.0000 0.0000
vt 1.0000 1.0000 0.0000
vt 0.0000 1.0000 0.0000
# 8 texture coords

o Box001
g Box001
usemtl 03___Default
s 2
f 1/1/1 2/2/1 3/3/1 
f 3/3/1 4/4/1 1/1/1 
usemtl 07___Default
s 4
f 5/5/2 6/6/2 7/7/2 
f 7/7/2 8/8/2 5/5/2 
usemtl 02___Default
s 8
f 1/5/3 4/6/3 6/7/3 
f 6/7/3 5/8/3 1/5/3 
usemtl 08___Default
s 16
f 4/5/4 3/6/4 7/7/4 
f 7/7/4 6/8/4 4/5/4 
s 32
f 3/5/5 2/6/5 8/7/5 
f 8/7/5 7/8/5 3/5/5 
s 64
f 2/5/6 1/6/6 5/7/6 
f 5/7/6 8/8/6 2/5/6 
# 12 faces

